<svg xmlns="http://www.w3.org/2000/svg" xmlns:xlink="http://www.w3.org/1999/xlink" width="415" zoomAndPan="magnify" viewBox="0 0 311.25 67.499998" height="90" preserveAspectRatio="xMidYMid meet" version="1.0"><defs><g/><clipPath id="8d1fd4e8fa"><path d="M 296 27 L 309.734375 27 L 309.734375 36 L 296 36 Z M 296 27 " clip-rule="nonzero"/></clipPath></defs><g fill="#ffffff" fill-opacity="1"><g transform="translate(6.538438, 48.789997)"><g><path d="M 2.1875 -0.714844 C 1.6875 -0.714844 1.253906 -0.964844 1.226562 -1.511719 L 0.203125 -1.511719 C 0.210938 -0.390625 1.132812 0.109375 2.144531 0.109375 C 3.085938 0.109375 4.050781 -0.289062 4.050781 -1.371094 C 4.050781 -3.117188 1.398438 -2.53125 1.398438 -3.347656 C 1.398438 -3.691406 1.796875 -3.828125 2.078125 -3.828125 C 2.585938 -3.828125 2.863281 -3.671875 2.914062 -3.191406 L 3.894531 -3.191406 C 3.859375 -4.238281 3.011719 -4.65625 2.066406 -4.65625 C 1.226562 -4.65625 0.351562 -4.210938 0.351562 -3.265625 C 0.351562 -1.574219 3.003906 -2.144531 3.003906 -1.253906 C 3.003906 -0.84375 2.503906 -0.714844 2.1875 -0.714844 Z M 2.1875 -0.714844 "/></g></g></g><g fill="#ffffff" fill-opacity="1"><g transform="translate(15.97411, 48.789997)"><g><path d="M 2.902344 -1.753906 L 1.742188 -1.753906 L 2.320312 -3.386719 Z M 4.617188 0 L 2.753906 -4.589844 L 1.898438 -4.589844 L 0.0351562 0 L 1.121094 0 L 1.449219 -0.925781 L 3.199219 -0.925781 L 3.53125 0 Z M 4.617188 0 "/></g></g></g><g fill="#ffffff" fill-opacity="1"><g transform="translate(25.807993, 48.789997)"><g><path d="M 3.382812 -6.269531 L 2.515625 -6.269531 L 1.722656 -5.0625 L 2.476562 -5.0625 Z M 3.085938 -4.589844 L 3.085938 -1.9375 C 3.085938 -1.300781 2.894531 -0.945312 2.199219 -0.945312 C 1.511719 -0.945312 1.316406 -1.300781 1.316406 -1.9375 L 1.316406 -4.589844 L 0.304688 -4.589844 L 0.304688 -1.789062 C 0.304688 -0.566406 1.003906 0.0664062 2.199219 0.0664062 C 3.394531 0.0664062 4.097656 -0.566406 4.097656 -1.789062 L 4.097656 -4.589844 Z M 3.085938 -4.589844 "/></g></g></g><g fill="#ffffff" fill-opacity="1"><g transform="translate(35.392148, 48.789997)"><g><path d="M 1.402344 -0.929688 L 1.402344 -3.652344 L 1.707031 -3.652344 C 2.492188 -3.652344 3.015625 -3.058594 3.015625 -2.292969 C 3.015625 -1.53125 2.484375 -0.929688 1.707031 -0.929688 Z M 0.40625 -4.589844 L 0.40625 0 L 1.769531 0 C 3.070312 0 4.050781 -1 4.050781 -2.292969 C 4.050781 -3.589844 3.0625 -4.589844 1.769531 -4.589844 Z M 0.40625 -4.589844 "/></g></g></g><g fill="#ffffff" fill-opacity="1"><g transform="translate(44.861566, 48.789997)"><g><path d="M 3.0625 -0.917969 L 1.417969 -0.917969 L 1.417969 -1.84375 L 2.996094 -1.84375 L 2.996094 -2.761719 L 1.417969 -2.761719 L 1.417969 -3.671875 L 3.0625 -3.671875 L 3.0625 -4.589844 L 0.40625 -4.589844 L 0.40625 0 L 3.0625 0 Z M 3.0625 -0.917969 "/></g></g></g><g fill="#ffffff" fill-opacity="1"><g transform="translate(53.514305, 48.789997)"><g/></g></g><g fill="#ffffff" fill-opacity="1"><g transform="translate(60.385189, 48.789997)"><g><path d="M 6.128906 0 L 5.238281 -4.589844 L 4.035156 -4.589844 L 3.085938 -1.371094 L 2.125 -4.589844 L 0.925781 -4.589844 L 0.0351562 0 L 1.148438 0 L 1.6875 -3.164062 L 2.585938 0 L 3.578125 0 L 4.476562 -3.164062 L 5.015625 0 Z M 6.128906 0 "/></g></g></g><g fill="#ffffff" fill-opacity="1"><g transform="translate(71.730946, 48.789997)"><g><path d="M 3.0625 -0.917969 L 1.417969 -0.917969 L 1.417969 -1.84375 L 2.996094 -1.84375 L 2.996094 -2.761719 L 1.417969 -2.761719 L 1.417969 -3.671875 L 3.0625 -3.671875 L 3.0625 -4.589844 L 0.40625 -4.589844 L 0.40625 0 L 3.0625 0 Z M 3.0625 -0.917969 "/></g></g></g><g fill="#ffffff" fill-opacity="1"><g transform="translate(80.383685, 48.789997)"><g><path d="M 4.007812 0 L 4.007812 -4.589844 L 2.996094 -4.589844 L 2.996094 -1.726562 L 1.417969 -4.589844 L 0.40625 -4.589844 L 0.40625 0 L 1.417969 0 L 1.417969 -2.863281 L 2.996094 0 Z M 4.007812 0 "/></g></g></g><g fill="#ffffff" fill-opacity="1"><g transform="translate(89.981342, 48.789997)"><g><path d="M 2.355469 -3.671875 L 3.664062 -3.671875 L 3.664062 -4.589844 L 0.0351562 -4.589844 L 0.0351562 -3.671875 L 1.34375 -3.671875 L 1.34375 0 L 2.355469 0 Z M 2.355469 -3.671875 "/></g></g></g><g fill="#ffffff" fill-opacity="1"><g transform="translate(98.863562, 48.789997)"><g><path d="M 2.902344 -1.753906 L 1.742188 -1.753906 L 2.320312 -3.386719 Z M 4.617188 0 L 2.753906 -4.589844 L 1.898438 -4.589844 L 0.0351562 0 L 1.121094 0 L 1.449219 -0.925781 L 3.199219 -0.925781 L 3.53125 0 Z M 4.617188 0 "/></g></g></g><g fill="#ffffff" fill-opacity="1"><g transform="translate(108.697447, 48.789997)"><g><path d="M 0.40625 0 L 3.0625 0 L 3.0625 -0.917969 L 1.417969 -0.917969 L 1.417969 -4.589844 L 0.40625 -4.589844 Z M 0.40625 0 "/></g></g></g><g fill="#ffffff" fill-opacity="1"><g transform="translate(1.634069, 36.124114)"><g><path d="M 5.8125 -0.183594 C 10.855469 -0.570312 23.070312 -5.246094 23.4375 -14.46875 C 23.492188 -16.6875 22.410156 -18.78125 20.558594 -20.027344 C 17.496094 -22.300781 12.820312 -22.851562 8.65625 -21.402344 C 3.832031 -19.75 0.75 -16.78125 0.386719 -13.460938 C 0.109375 -11.40625 1.101562 -9.371094 2.878906 -8.308594 C 4.164062 -7.554688 5.667969 -7.226562 7.132812 -7.390625 C 7.226562 -7.410156 7.316406 -7.371094 7.371094 -7.300781 C 7.425781 -7.226562 7.445312 -7.132812 7.425781 -7.0625 C 6.695312 -4.730469 5.921875 -2.402344 5.320312 -0.84375 C 5.261719 -0.695312 5.28125 -0.53125 5.375 -0.386719 C 5.464844 -0.257812 5.613281 -0.183594 5.777344 -0.183594 Z M 8.492188 -7.261719 C 8.566406 -7.484375 8.75 -7.667969 8.988281 -7.738281 C 10.472656 -8.160156 11.867188 -8.804688 13.132812 -9.648438 C 13.277344 -9.738281 13.371094 -9.902344 13.351562 -10.085938 C 13.351562 -10.25 13.242188 -10.417969 13.09375 -10.492188 C 12.929688 -10.5625 12.746094 -10.5625 12.597656 -10.453125 C 11.609375 -9.8125 10.546875 -9.28125 9.425781 -8.875 C 9.335938 -8.839844 9.226562 -8.875 9.152344 -8.949219 C 9.097656 -9.003906 9.058594 -9.113281 9.097656 -9.207031 C 10.070312 -12.433594 10.855469 -15.148438 10.875 -15.183594 C 10.929688 -15.40625 10.839844 -15.644531 10.636719 -15.734375 C 10.453125 -15.84375 10.214844 -15.808594 10.050781 -15.644531 C 9.242188 -14.78125 7.921875 -14.597656 6.914062 -15.222656 C 6.695312 -15.367188 6.402344 -15.296875 6.253906 -15.074219 C 6.105469 -14.835938 6.179688 -14.542969 6.417969 -14.398438 C 7.207031 -13.882812 8.199219 -13.738281 9.097656 -13.992188 C 9.1875 -14.03125 9.296875 -14.011719 9.371094 -13.9375 C 9.425781 -13.882812 9.464844 -13.773438 9.425781 -13.679688 C 9.058594 -12.453125 8.546875 -10.691406 7.976562 -8.820312 C 7.90625 -8.601562 7.703125 -8.4375 7.484375 -8.398438 C 6.070312 -8.160156 4.621094 -8.417969 3.394531 -9.113281 C 1.925781 -9.996094 1.117188 -11.664062 1.339844 -13.371094 C 1.652344 -16.304688 4.511719 -18.964844 8.96875 -20.503906 C 12.855469 -21.84375 17.164062 -21.347656 19.992188 -19.257812 C 21.566406 -18.210938 22.503906 -16.414062 22.484375 -14.507812 C 22.171875 -6.675781 12.121094 -2.238281 6.933594 -1.300781 C 6.839844 -1.285156 6.75 -1.320312 6.695312 -1.394531 C 6.640625 -1.46875 6.621094 -1.558594 6.640625 -1.652344 C 7.207031 -3.246094 7.867188 -5.261719 8.492188 -7.261719 Z M 8.492188 -7.261719 "/></g></g></g><g fill="#ffffff" fill-opacity="1"><g transform="translate(24.021289, 36.124114)"><g><path d="M 15.808594 -4.824219 C 15.71875 -4.914062 15.605469 -4.96875 15.480469 -4.96875 C 15.351562 -4.96875 15.222656 -4.914062 15.128906 -4.824219 C 11.957031 -1.722656 6.328125 -1.0625 5.117188 -1.777344 C 4.292969 -2.253906 4.382812 -2.824219 4.96875 -3.960938 C 5.246094 -4.511719 5.558594 -5.152344 5.023438 -5.539062 C 4.53125 -5.90625 4.054688 -5.667969 3.632812 -5.445312 C 3.027344 -5.097656 2.347656 -4.914062 1.632812 -4.914062 C 1.46875 -4.914062 1.320312 -5.207031 1.355469 -5.320312 C 2.382812 -7.574219 1.925781 -7.996094 1.761719 -8.160156 C 1.484375 -8.4375 1.0625 -8.417969 0.550781 -8.105469 C -0.292969 -7.5 -0.660156 -6.417969 -0.367188 -5.410156 C -0.292969 -5.136719 -0.164062 -4.878906 0.0195312 -4.660156 C 0 -4.457031 0.0898438 -4.273438 0.273438 -4.179688 C 0.386719 -4.125 0.511719 -4.125 0.640625 -4.164062 C 0.953125 -4.015625 1.300781 -3.941406 1.652344 -3.941406 C 2.402344 -3.925781 3.136719 -4.089844 3.796875 -4.457031 C 4.054688 -4.585938 4.144531 -4.476562 4.109375 -4.402344 C 3.667969 -3.539062 2.878906 -1.960938 4.640625 -0.933594 C 5.261719 -0.640625 5.960938 -0.511719 6.65625 -0.570312 C 9.226562 -0.570312 13.257812 -1.667969 15.789062 -4.144531 C 15.882812 -4.21875 15.9375 -4.347656 15.9375 -4.476562 C 15.957031 -4.601562 15.902344 -4.730469 15.808594 -4.824219 Z M 0.53125 -5.832031 C 0.421875 -6.363281 0.605469 -6.914062 1.027344 -7.261719 C 0.898438 -6.765625 0.734375 -6.289062 0.53125 -5.8125 Z M 0.53125 -5.832031 "/></g></g></g><g fill="#ffffff" fill-opacity="1"><g transform="translate(39.056117, 36.124114)"><g><path d="M 15.332031 -4.4375 C 15.148438 -4.640625 14.835938 -4.660156 14.636719 -4.476562 C 14.582031 -4.417969 9.132812 0.476562 5.757812 -1.742188 C 4.417969 -2.621094 4.089844 -4.75 4.089844 -4.769531 C 4.070312 -4.988281 3.90625 -5.152344 3.6875 -5.191406 C 3.484375 -5.207031 3.265625 -5.097656 3.171875 -4.914062 C 2.3125 -3.007812 0.789062 -0.585938 0.367188 -0.863281 C 0.332031 -0.863281 0.257812 -0.933594 0.203125 -1.0625 C -0.0195312 -1.667969 0.0546875 -2.328125 0.367188 -2.898438 C 1.0625 -4.328125 2.347656 -5.355469 3.886719 -5.742188 C 4.054688 -5.777344 4.179688 -5.90625 4.238281 -6.070312 C 4.292969 -6.234375 4.238281 -6.417969 4.125 -6.546875 C 4 -6.65625 3.832031 -6.710938 3.667969 -6.675781 C 1.832031 -6.234375 0.3125 -4.988281 -0.511719 -3.300781 C -0.953125 -2.476562 -1.007812 -1.484375 -0.660156 -0.625 C -0.496094 -0.203125 -0.0898438 0.0898438 0.367188 0.0898438 L 0.386719 0.0898438 C 1.285156 0.0742188 2.402344 -1.046875 3.171875 -2.253906 C 3.265625 -2.402344 3.429688 -2.476562 3.59375 -2.457031 C 3.757812 -2.457031 3.90625 -2.367188 3.980469 -2.21875 C 4.292969 -1.707031 4.714844 -1.265625 5.226562 -0.953125 C 9.226562 1.707031 15.039062 -3.539062 15.296875 -3.757812 C 15.386719 -3.851562 15.441406 -3.980469 15.441406 -4.089844 C 15.460938 -4.21875 15.40625 -4.347656 15.332031 -4.4375 Z M 15.332031 -4.4375 "/></g></g></g><g fill="#ffffff" fill-opacity="1"><g transform="translate(53.870916, 36.124114)"><g><path d="M 1.796875 -0.203125 L 1.960938 -0.457031 C 2.109375 -0.679688 2.054688 -0.972656 1.832031 -1.117188 C 1.59375 -1.265625 1.300781 -1.210938 1.15625 -0.992188 L 0.992188 -0.734375 C 0.898438 -0.585938 0.878906 -0.402344 0.972656 -0.238281 C 1.046875 -0.0898438 1.210938 0 1.394531 0 C 1.539062 0.0195312 1.707031 -0.0742188 1.796875 -0.203125 Z M 1.796875 -0.203125 "/></g></g></g><g fill="#ffffff" fill-opacity="1"><g transform="translate(56.841216, 36.124114)"><g/></g></g><g fill="#ffffff" fill-opacity="1"><g transform="translate(63.661896, 36.124114)"><g><path d="M 23.675781 -5.539062 C 24.519531 -6.96875 25.070312 -6.621094 26.261719 -6.34375 C 27.691406 -5.796875 29.03125 -5.28125 30.242188 -4.839844 C 30.628906 -4.695312 30.882812 -4.382812 30.9375 -3.980469 C 31.25 -1.722656 31.726562 -0.53125 32.460938 -0.292969 C 32.589844 -0.238281 32.71875 -0.257812 32.828125 -0.3125 C 32.9375 -0.367188 33.03125 -0.476562 33.066406 -0.585938 C 33.140625 -0.84375 33.011719 -1.117188 32.753906 -1.210938 C 32.441406 -1.320312 32.203125 -2.054688 32.019531 -3.171875 C 31.964844 -3.410156 32.058594 -3.648438 32.242188 -3.796875 C 32.40625 -3.941406 32.664062 -4 32.882812 -3.925781 C 34.128906 -3.464844 35.449219 -3.191406 36.789062 -3.117188 C 36.898438 -3.117188 37.027344 -3.171875 37.121094 -3.265625 C 37.210938 -3.355469 37.246094 -3.484375 37.246094 -3.613281 C 37.246094 -3.742188 37.191406 -3.871094 37.101562 -3.941406 C 37.007812 -4.035156 36.882812 -4.089844 36.753906 -4.089844 C 35.265625 -4.199219 33.820312 -4.546875 32.425781 -5.097656 C 32.019531 -5.226562 31.726562 -5.59375 31.691406 -6.015625 C 31.398438 -9.847656 31.359375 -15 31.34375 -17.882812 C 31.324219 -21.898438 31.289062 -23.457031 31.105469 -23.898438 C 31.03125 -24.097656 30.847656 -24.226562 30.644531 -24.207031 C 30.425781 -24.191406 30.261719 -24.042969 30.207031 -23.839844 C 29.125 -19.933594 27.785156 -16.101562 26.1875 -12.378906 C 25.65625 -11.167969 25.144531 -10.070312 24.613281 -9.042969 C 24.375 -8.566406 23.785156 -8.34375 23.292969 -8.527344 C 17.277344 -10.839844 10.398438 -13.316406 5.136719 -13.71875 C 3.097656 -13.863281 1.777344 -13.5 1.210938 -12.636719 C 0.734375 -11.902344 0.824219 -10.929688 1.46875 -9.738281 C 3.484375 -6.050781 11.261719 -0.183594 16.707031 -0.183594 C 19.273438 -0.183594 21.640625 -2.4375 23.675781 -5.539062 Z M 4.238281 -12.78125 C 4.492188 -12.78125 4.769531 -12.78125 5.0625 -12.765625 C 10.070312 -12.378906 16.652344 -10.050781 22.484375 -7.8125 C 22.777344 -7.703125 23.015625 -7.445312 23.109375 -7.152344 C 23.21875 -6.839844 23.164062 -6.511719 23 -6.234375 C 20.851562 -2.878906 18.726562 -1.15625 16.707031 -1.15625 C 12.011719 -1.15625 4.382812 -6.402344 2.3125 -10.195312 C 2 -10.785156 1.6875 -11.589844 2.015625 -12.105469 C 2.292969 -12.542969 3.082031 -12.78125 4.238281 -12.78125 Z M 30.003906 -19.824219 C 30.132812 -20.210938 30.371094 -20.136719 30.371094 -19.714844 C 30.371094 -19.128906 30.371094 -18.503906 30.390625 -17.882812 C 30.40625 -13.371094 30.480469 -9.773438 30.644531 -7.042969 C 30.683594 -6.730469 30.535156 -6.457031 30.296875 -6.273438 C 30.058594 -6.089844 29.746094 -6.050781 29.472656 -6.164062 C 28.316406 -6.601562 27.070312 -7.078125 25.785156 -7.574219 L 25.070312 -7.847656 C 27.070312 -11.683594 28.71875 -15.699219 30.003906 -19.824219 Z M 30.003906 -19.824219 "/></g></g></g><g fill="#ffffff" fill-opacity="1"><g transform="translate(101.87235, 36.124114)"><g><path d="M 16.027344 -4.566406 C 15.917969 -4.640625 15.808594 -4.695312 15.679688 -4.695312 C 15.550781 -4.675781 15.421875 -4.621094 15.351562 -4.53125 C 15.296875 -4.492188 11.261719 -0.183594 7.757812 -1.59375 C 7.003906 -2 6.402344 -2.605469 5.980469 -3.355469 C 5.832031 -3.59375 5.648438 -3.832031 5.429688 -4.054688 C 5.191406 -4.347656 4.824219 -4.511719 4.4375 -4.53125 C 3.503906 -4.601562 2.367188 -3.980469 1.007812 -2.695312 C 0.972656 -2.660156 0.917969 -2.640625 0.863281 -2.675781 C 0.808594 -2.695312 0.769531 -2.769531 0.789062 -2.824219 L 1.191406 -4.621094 C 1.265625 -4.878906 1.101562 -5.152344 0.84375 -5.207031 C 0.585938 -5.261719 0.332031 -5.097656 0.257812 -4.839844 L -0.660156 -0.824219 C -0.714844 -0.605469 -0.605469 -0.386719 -0.402344 -0.292969 C -0.203125 -0.183594 0.0351562 -0.238281 0.183594 -0.402344 C 2.640625 -3.28125 3.886719 -3.558594 4.328125 -3.578125 C 4.769531 -3.59375 5.042969 -3.027344 5.191406 -2.804688 C 5.703125 -1.90625 6.472656 -1.171875 7.390625 -0.714844 C 11.5 0.953125 15.863281 -3.6875 16.046875 -3.886719 C 16.230469 -4.070312 16.210938 -4.382812 16.027344 -4.566406 Z M 16.027344 -4.566406 "/></g></g></g><g fill="#ffffff" fill-opacity="1"><g transform="translate(117.145533, 36.124114)"><g><path d="M 12.765625 -4.824219 C 12.5625 -5.007812 12.25 -4.988281 12.085938 -4.785156 C 10.636719 -3.28125 8.289062 -3.136719 6.675781 -4.4375 C 6.289062 -4.714844 5.757812 -4.695312 5.410156 -4.363281 C 5.207031 -4.179688 4.988281 -3.980469 4.769531 -3.742188 C 4.070312 -2.953125 3.941406 -3.613281 3.941406 -4.054688 C 3.941406 -4.4375 3.871094 -4.839844 3.742188 -5.207031 C 3.667969 -5.390625 3.484375 -5.519531 3.28125 -5.519531 C 3.082031 -5.5 2.917969 -5.390625 2.84375 -5.191406 C 2.328125 -3.757812 1.230469 -1.667969 0.457031 -1.523438 C 0.402344 -1.503906 0.257812 -1.484375 0.0351562 -1.722656 C -0.0742188 -2.199219 0 -2.714844 0.238281 -3.15625 C 0.789062 -4.640625 2.144531 -5.683594 3.722656 -5.832031 C 4 -5.851562 4.199219 -6.089844 4.179688 -6.34375 C 4.164062 -6.621094 3.925781 -6.824219 3.667969 -6.804688 C 1.707031 -6.621094 0.0195312 -5.335938 -0.679688 -3.484375 C -0.992188 -2.675781 -1.171875 -1.613281 -0.679688 -1.082031 C -0.347656 -0.679688 0.148438 -0.496094 0.640625 -0.585938 C 1.558594 -0.769531 2.382812 -1.980469 2.972656 -3.082031 C 2.933594 -2.640625 2.878906 -2.144531 2.804688 -1.632812 C 2.789062 -1.523438 2.75 -1.429688 2.695312 -1.355469 C 0.550781 1.355469 -1.394531 4.640625 -1.429688 6.710938 C -1.484375 7.261719 -1.285156 7.8125 -0.917969 8.214844 C -0.734375 8.398438 -0.511719 8.492188 -0.273438 8.492188 C -0.0742188 8.492188 0.128906 8.4375 0.292969 8.328125 C 1.503906 7.519531 3.042969 2.804688 3.648438 -0.933594 C 3.667969 -1.007812 3.703125 -1.082031 3.757812 -1.15625 C 4.402344 -1.945312 5.082031 -2.695312 5.796875 -3.410156 C 5.960938 -3.578125 6.21875 -3.59375 6.402344 -3.464844 C 8.417969 -2.109375 11.09375 -2.402344 12.78125 -4.144531 C 12.949219 -4.347656 12.949219 -4.640625 12.765625 -4.824219 Z M 0.550781 6.382812 C 0.128906 7.226562 -0.0195312 7.59375 -0.238281 7.519531 C -0.457031 7.464844 -0.476562 7.097656 -0.457031 6.730469 C -0.421875 5.320312 2.035156 0.53125 2.382812 0.679688 C 2.734375 0.824219 1.246094 4.933594 0.550781 6.382812 Z M 0.550781 6.382812 "/></g></g></g><g fill="#ffffff" fill-opacity="1"><g transform="translate(129.228399, 36.124114)"><g><path d="M 15.386719 -4.714844 C 15.296875 -4.804688 15.183594 -4.878906 15.058594 -4.878906 C 14.929688 -4.898438 14.800781 -4.859375 14.707031 -4.785156 C 14.636719 -4.730469 7.574219 0.878906 1.6875 -1.539062 C 0.496094 -2.035156 0.441406 -2.675781 0.476562 -3.027344 C 0.476562 -3.082031 0.496094 -3.136719 0.550781 -3.171875 C 0.585938 -3.210938 0.660156 -3.210938 0.714844 -3.191406 C 1.90625 -3.117188 3.097656 -3.429688 4.125 -4.070312 C 5.007812 -4.640625 5.152344 -5.261719 5.097656 -5.667969 C 5.0625 -6.328125 4.53125 -6.859375 3.851562 -6.878906 C 2.402344 -6.949219 -0.0195312 -5.226562 -0.421875 -3.394531 C -0.585938 -2.714844 -0.570312 -1.429688 1.320312 -0.660156 C 2.476562 -0.183594 3.6875 0.0351562 4.914062 0.0351562 C 10.179688 0.0351562 15.058594 -3.832031 15.3125 -4.035156 C 15.40625 -4.109375 15.480469 -4.238281 15.480469 -4.347656 C 15.496094 -4.476562 15.460938 -4.601562 15.386719 -4.714844 Z M 1.136719 -4.308594 C 1.851562 -5.300781 3.042969 -5.960938 3.796875 -5.90625 C 4 -5.90625 4.109375 -5.832031 4.144531 -5.558594 C 4.164062 -5.375 3.960938 -5.117188 3.59375 -4.878906 C 2.84375 -4.382812 0.585938 -3.578125 1.136719 -4.308594 Z M 1.136719 -4.308594 "/></g></g></g><g fill="#ffffff" fill-opacity="1"><g transform="translate(143.914858, 36.124114)"><g><path d="M 12.617188 -4.695312 C 12.527344 -4.785156 12.398438 -4.839844 12.269531 -4.839844 C 12.140625 -4.839844 12.011719 -4.785156 11.921875 -4.695312 C 11.882812 -4.660156 7.0625 0.0898438 3.59375 -0.953125 C 2.367188 -1.320312 1.6875 -2.496094 1.300781 -3.742188 C 1.191406 -4.144531 1.230469 -4.585938 1.414062 -4.96875 C 2.695312 -7.574219 5.851562 -14.398438 4.292969 -16.066406 C 3.925781 -16.523438 3.320312 -16.671875 2.789062 -16.449219 C 0.933594 -15.644531 -0.292969 -10.234375 -0.0742188 -6.289062 C -0.0351562 -5.683594 0.0351562 -5.082031 0.148438 -4.476562 C 0.148438 -4.402344 0.148438 -4.347656 0.183594 -4.292969 C 0.660156 -1.980469 1.742188 -0.496094 3.320312 -0.0351562 C 3.757812 0.0898438 4.199219 0.164062 4.640625 0.164062 C 8.363281 0.164062 12.414062 -3.832031 12.597656 -4.015625 C 12.691406 -4.109375 12.746094 -4.21875 12.746094 -4.347656 C 12.746094 -4.492188 12.710938 -4.601562 12.617188 -4.695312 Z M 0.933594 -6.566406 C 0.367188 -9.628906 2.253906 -15.183594 3.171875 -15.570312 C 3.210938 -15.589844 3.246094 -15.605469 3.28125 -15.605469 C 3.355469 -15.605469 3.449219 -15.570312 3.578125 -15.421875 C 4.308594 -14.652344 2.21875 -8.015625 1.246094 -6.457031 C 1.15625 -6.289062 0.972656 -6.382812 0.933594 -6.566406 Z M 0.933594 -6.566406 "/></g></g></g><g fill="#ffffff" fill-opacity="1"><g transform="translate(155.997724, 36.124114)"><g><path d="M 15.332031 -4.4375 C 15.148438 -4.640625 14.835938 -4.660156 14.636719 -4.476562 C 14.582031 -4.417969 9.132812 0.476562 5.757812 -1.742188 C 4.417969 -2.621094 4.089844 -4.75 4.089844 -4.769531 C 4.070312 -4.988281 3.90625 -5.152344 3.6875 -5.191406 C 3.484375 -5.207031 3.265625 -5.097656 3.171875 -4.914062 C 2.3125 -3.007812 0.789062 -0.585938 0.367188 -0.863281 C 0.332031 -0.863281 0.257812 -0.933594 0.203125 -1.0625 C -0.0195312 -1.667969 0.0546875 -2.328125 0.367188 -2.898438 C 1.0625 -4.328125 2.347656 -5.355469 3.886719 -5.742188 C 4.054688 -5.777344 4.179688 -5.90625 4.238281 -6.070312 C 4.292969 -6.234375 4.238281 -6.417969 4.125 -6.546875 C 4 -6.65625 3.832031 -6.710938 3.667969 -6.675781 C 1.832031 -6.234375 0.3125 -4.988281 -0.511719 -3.300781 C -0.953125 -2.476562 -1.007812 -1.484375 -0.660156 -0.625 C -0.496094 -0.203125 -0.0898438 0.0898438 0.367188 0.0898438 L 0.386719 0.0898438 C 1.285156 0.0742188 2.402344 -1.046875 3.171875 -2.253906 C 3.265625 -2.402344 3.429688 -2.476562 3.59375 -2.457031 C 3.757812 -2.457031 3.90625 -2.367188 3.980469 -2.21875 C 4.292969 -1.707031 4.714844 -1.265625 5.226562 -0.953125 C 9.226562 1.707031 15.039062 -3.539062 15.296875 -3.757812 C 15.386719 -3.851562 15.441406 -3.980469 15.441406 -4.089844 C 15.460938 -4.21875 15.40625 -4.347656 15.332031 -4.4375 Z M 15.332031 -4.4375 "/></g></g></g><g fill="#ffffff" fill-opacity="1"><g transform="translate(170.812523, 36.124114)"><g/></g></g><g fill="#ffffff" fill-opacity="1"><g transform="translate(177.633204, 36.124114)"><g><path d="M 21.789062 -14.066406 C 23.511719 -16.984375 22.871094 -18.578125 22.027344 -19.402344 C 19.292969 -22.082031 10.269531 -20.320312 4.785156 -16.964844 C 1.230469 -14.800781 -0.332031 -12.324219 0.386719 -10.011719 C 0.457031 -9.757812 0.734375 -9.609375 0.992188 -9.683594 C 1.246094 -9.773438 1.375 -10.03125 1.300781 -10.289062 C 0.53125 -12.800781 3.464844 -15.039062 5.28125 -16.15625 C 10.894531 -19.570312 19.148438 -20.890625 21.347656 -18.707031 C 22.226562 -17.863281 22.082031 -16.46875 20.960938 -14.542969 C 18.652344 -10.617188 13.167969 -8.234375 9.792969 -7.722656 C 9.757812 -7.722656 9.683594 -7.792969 9.703125 -7.867188 C 9.71875 -7.941406 9.71875 -7.941406 9.738281 -7.996094 C 10.324219 -11.039062 11.09375 -14.835938 12.214844 -15.113281 C 12.472656 -15.167969 12.617188 -15.421875 12.5625 -15.679688 C 12.488281 -15.9375 12.234375 -16.101562 11.976562 -16.046875 C 10.269531 -15.625 9.589844 -12.234375 8.804688 -8.269531 C 8.785156 -8.179688 8.691406 -8.125 8.621094 -8.234375 C 7.996094 -9.1875 7.539062 -9.683594 7.003906 -9.609375 C 6.4375 -9.519531 6.273438 -8.875 6.21875 -8.65625 C 5.980469 -7.941406 6.363281 -7.152344 7.097656 -6.894531 C 7.5 -6.75 7.921875 -6.675781 8.363281 -6.65625 C 8.398438 -6.65625 8.472656 -6.65625 8.453125 -6.546875 C 7.90625 -3.925781 7.226562 -1.300781 6.308594 -1.0625 C 6.144531 -1.027344 5.996094 -0.898438 5.960938 -0.734375 C 5.90625 -0.550781 5.960938 -0.386719 6.070312 -0.257812 C 6.199219 -0.128906 6.382812 -0.0898438 6.546875 -0.128906 C 7.847656 -0.476562 8.546875 -2.53125 9.152344 -5.226562 C 9.167969 -5.28125 9.1875 -5.300781 9.242188 -5.320312 C 9.28125 -5.320312 9.316406 -5.300781 9.335938 -5.261719 C 10.96875 -2.714844 13.203125 0.21875 16.230469 0.21875 C 16.359375 0.21875 16.488281 0.21875 16.632812 0.203125 C 19.75 -0.0742188 20.742188 -3.375 20.796875 -3.503906 C 20.871094 -3.757812 20.722656 -4.035156 20.46875 -4.109375 C 20.210938 -4.179688 19.933594 -4.035156 19.863281 -3.777344 C 19.863281 -3.757812 19.019531 -0.972656 16.542969 -0.75 C 16.433594 -0.75 16.339844 -0.75 16.230469 -0.75 C 13.515625 -0.75 11.371094 -3.816406 9.832031 -6.289062 C 9.773438 -6.382812 9.773438 -6.492188 9.8125 -6.601562 C 9.867188 -6.695312 9.957031 -6.765625 10.070312 -6.785156 C 13.808594 -7.355469 19.367188 -9.921875 21.789062 -14.066406 Z M 7.464844 -7.792969 C 7.097656 -7.941406 7.042969 -8.160156 7.132812 -8.417969 C 7.1875 -8.546875 7.226562 -8.507812 7.261719 -8.492188 C 7.425781 -8.269531 7.59375 -8.050781 7.738281 -7.832031 C 7.8125 -7.722656 7.722656 -7.703125 7.683594 -7.722656 C 7.609375 -7.738281 7.539062 -7.757812 7.464844 -7.792969 Z M 7.464844 -7.792969 "/></g></g></g><g fill="#ffffff" fill-opacity="1"><g transform="translate(199.433699, 36.124114)"><g><path d="M 13.371094 -5.207031 C 13.277344 -5.300781 13.167969 -5.335938 13.039062 -5.335938 C 12.910156 -5.335938 12.78125 -5.300781 12.691406 -5.207031 C 10.492188 -3.007812 7.371094 -2 4.308594 -2.511719 C 4.070312 -2.566406 3.90625 -2.789062 3.941406 -3.027344 C 4.089844 -3.90625 4.015625 -4.804688 3.503906 -5.097656 C 3.171875 -5.28125 2.675781 -5.300781 2.089844 -4.308594 C 1.871094 -3.980469 1.796875 -3.578125 1.871094 -3.191406 C 1.960938 -2.804688 2.199219 -2.457031 2.53125 -2.253906 C 2.734375 -2.089844 2.496094 -1.816406 2.367188 -1.6875 C 2.015625 -1.265625 1.414062 -1.191406 0.992188 -1.523438 C 0.457031 -1.761719 0.21875 -2.347656 0.421875 -2.878906 C 0.660156 -3.851562 1.613281 -4.695312 1.960938 -4.695312 C 2.21875 -4.695312 2.4375 -4.914062 2.4375 -5.171875 C 2.457031 -5.429688 2.238281 -5.648438 1.980469 -5.667969 L 1.960938 -5.667969 C 1.046875 -5.667969 -0.183594 -4.417969 -0.511719 -3.117188 C -0.824219 -2.164062 -0.386719 -1.117188 0.53125 -0.679688 C 0.878906 -0.476562 1.265625 -0.386719 1.667969 -0.367188 C 2.457031 -0.402344 3.15625 -0.878906 3.484375 -1.613281 C 3.519531 -1.667969 3.613281 -1.707031 3.6875 -1.6875 C 6.015625 -0.992188 10.269531 -1.429688 13.371094 -4.511719 C 13.460938 -4.601562 13.515625 -4.730469 13.515625 -4.859375 C 13.515625 -4.988281 13.460938 -5.117188 13.371094 -5.207031 Z M 2.988281 -3.117188 C 2.789062 -3.300781 2.75 -3.59375 2.917969 -3.816406 C 2.972656 -3.90625 3.007812 -3.960938 3.042969 -4.015625 C 3.0625 -3.722656 3.042969 -3.410156 2.988281 -3.117188 Z M 2.988281 -3.117188 "/></g></g></g><g fill="#ffffff" fill-opacity="1"><g transform="translate(212.103301, 36.124114)"><g><path d="M 17.347656 -4.199219 C 17.257812 -4.292969 17.148438 -4.328125 17.019531 -4.347656 C 16.890625 -4.347656 16.761719 -4.292969 16.671875 -4.199219 C 13.902344 -1.484375 9.867188 -0.550781 8.179688 -1.082031 C 6.75 -1.539062 6.089844 -2.84375 5.796875 -4.21875 C 5.742188 -4.53125 5.796875 -4.824219 5.960938 -5.082031 C 8.160156 -8.820312 10.492188 -14.214844 9.683594 -15.515625 C 9.5 -15.808594 9.167969 -15.957031 8.820312 -15.902344 C 6.785156 -15.644531 5.042969 -11.425781 4.695312 -7.667969 C 4.621094 -6.859375 4.621094 -6.070312 4.675781 -5.28125 C 4.695312 -5.023438 4.640625 -4.769531 4.492188 -4.546875 C 4.382812 -4.363281 4.253906 -4.164062 4.125 -3.980469 C 2.511719 -1.59375 1.414062 -0.824219 0.953125 -0.878906 C 0.714844 -0.898438 0.511719 -1.0625 0.457031 -1.285156 C 0.273438 -2.21875 0.496094 -3.171875 1.027344 -3.941406 C 1.414062 -4.402344 1.980469 -4.914062 2.53125 -4.804688 C 2.84375 -4.714844 3.097656 -4.476562 3.226562 -4.179688 C 3.28125 -3.925781 3.519531 -3.742188 3.777344 -3.777344 C 4.035156 -3.816406 4.21875 -4.054688 4.179688 -4.328125 C 4 -4.988281 3.503906 -5.5 2.84375 -5.703125 C 2.273438 -5.886719 1.355469 -5.8125 0.292969 -4.566406 C -0.292969 -3.886719 -0.878906 -2.089844 -0.441406 -0.933594 C -0.257812 -0.386719 0.238281 0 0.808594 0.0742188 C 0.863281 0.0742188 0.933594 0.0742188 0.992188 0.0742188 C 1.960938 0.0742188 3.191406 -0.972656 4.640625 -3.042969 C 4.695312 -3.117188 4.804688 -3.171875 4.914062 -3.15625 C 5.023438 -3.15625 5.117188 -3.082031 5.152344 -2.988281 C 5.558594 -1.652344 6.582031 -0.605469 7.886719 -0.164062 C 10.050781 0.511719 14.453125 -0.695312 17.347656 -3.519531 C 17.53125 -3.703125 17.53125 -4 17.347656 -4.199219 Z M 5.667969 -7.574219 C 5.960938 -10.929688 7.300781 -13.882812 8.4375 -14.726562 C 8.527344 -14.78125 8.65625 -14.800781 8.765625 -14.726562 C 8.859375 -14.671875 8.914062 -14.5625 8.914062 -14.453125 C 8.75 -13.058594 7.757812 -10.546875 5.921875 -7.28125 C 5.628906 -6.804688 5.628906 -7.246094 5.667969 -7.574219 Z M 5.667969 -7.574219 "/></g></g></g><g fill="#ffffff" fill-opacity="1"><g transform="translate(228.788278, 36.124114)"><g><path d="M 15.808594 -4.824219 C 15.71875 -4.914062 15.605469 -4.96875 15.480469 -4.96875 C 15.351562 -4.96875 15.222656 -4.914062 15.128906 -4.824219 C 11.957031 -1.722656 6.328125 -1.0625 5.117188 -1.777344 C 4.292969 -2.253906 4.382812 -2.824219 4.96875 -3.960938 C 5.246094 -4.511719 5.558594 -5.152344 5.023438 -5.539062 C 4.53125 -5.90625 4.054688 -5.667969 3.632812 -5.445312 C 3.027344 -5.097656 2.347656 -4.914062 1.632812 -4.914062 C 1.46875 -4.914062 1.320312 -5.207031 1.355469 -5.320312 C 2.382812 -7.574219 1.925781 -7.996094 1.761719 -8.160156 C 1.484375 -8.4375 1.0625 -8.417969 0.550781 -8.105469 C -0.292969 -7.5 -0.660156 -6.417969 -0.367188 -5.410156 C -0.292969 -5.136719 -0.164062 -4.878906 0.0195312 -4.660156 C 0 -4.457031 0.0898438 -4.273438 0.273438 -4.179688 C 0.386719 -4.125 0.511719 -4.125 0.640625 -4.164062 C 0.953125 -4.015625 1.300781 -3.941406 1.652344 -3.941406 C 2.402344 -3.925781 3.136719 -4.089844 3.796875 -4.457031 C 4.054688 -4.585938 4.144531 -4.476562 4.109375 -4.402344 C 3.667969 -3.539062 2.878906 -1.960938 4.640625 -0.933594 C 5.261719 -0.640625 5.960938 -0.511719 6.65625 -0.570312 C 9.226562 -0.570312 13.257812 -1.667969 15.789062 -4.144531 C 15.882812 -4.21875 15.9375 -4.347656 15.9375 -4.476562 C 15.957031 -4.601562 15.902344 -4.730469 15.808594 -4.824219 Z M 0.53125 -5.832031 C 0.421875 -6.363281 0.605469 -6.914062 1.027344 -7.261719 C 0.898438 -6.765625 0.734375 -6.289062 0.53125 -5.8125 Z M 0.53125 -5.832031 "/></g></g></g><g fill="#ffffff" fill-opacity="1"><g transform="translate(243.823094, 36.124114)"><g><path d="M 11.882812 -4.953125 C 11.683594 -5.136719 11.390625 -5.136719 11.207031 -4.933594 C 11.132812 -4.878906 5.191406 1.171875 1.246094 -1.707031 C 0.0351562 -2.585938 1.210938 -4.878906 1.230469 -4.898438 C 1.339844 -5.136719 1.246094 -5.410156 1.007812 -5.539062 C 0.769531 -5.648438 0.496094 -5.574219 0.367188 -5.335938 C 0.292969 -5.226562 -1.191406 -2.3125 0.679688 -0.933594 C 1.539062 -0.292969 2.605469 0.0546875 3.6875 0.0351562 C 7.648438 0.0351562 11.664062 -4.054688 11.882812 -4.273438 C 11.976562 -4.363281 12.03125 -4.476562 12.03125 -4.601562 C 12.011719 -4.730469 11.976562 -4.859375 11.882812 -4.953125 Z M 0.164062 -6.402344 C 0.238281 -6.402344 0.3125 -6.417969 0.386719 -6.457031 C 0.824219 -6.675781 1.210938 -6.96875 1.558594 -7.316406 C 1.742188 -7.519531 1.722656 -7.8125 1.539062 -7.996094 C 1.339844 -8.179688 1.046875 -8.179688 0.863281 -7.976562 C 0.585938 -7.703125 0.273438 -7.484375 -0.0742188 -7.300781 C -0.257812 -7.207031 -0.367188 -6.96875 -0.3125 -6.765625 C -0.257812 -6.546875 -0.0546875 -6.402344 0.164062 -6.402344 Z M 0.164062 -6.402344 "/></g></g></g><g fill="#ffffff" fill-opacity="1"><g transform="translate(255.080881, 36.124114)"><g><path d="M 12.765625 -4.824219 C 12.5625 -5.007812 12.25 -4.988281 12.085938 -4.785156 C 10.636719 -3.28125 8.289062 -3.136719 6.675781 -4.4375 C 6.289062 -4.714844 5.757812 -4.695312 5.410156 -4.363281 C 5.207031 -4.179688 4.988281 -3.980469 4.769531 -3.742188 C 4.070312 -2.953125 3.941406 -3.613281 3.941406 -4.054688 C 3.941406 -4.4375 3.871094 -4.839844 3.742188 -5.207031 C 3.667969 -5.390625 3.484375 -5.519531 3.28125 -5.519531 C 3.082031 -5.5 2.917969 -5.390625 2.84375 -5.191406 C 2.328125 -3.757812 1.230469 -1.667969 0.457031 -1.523438 C 0.402344 -1.503906 0.257812 -1.484375 0.0351562 -1.722656 C -0.0742188 -2.199219 0 -2.714844 0.238281 -3.15625 C 0.789062 -4.640625 2.144531 -5.683594 3.722656 -5.832031 C 4 -5.851562 4.199219 -6.089844 4.179688 -6.34375 C 4.164062 -6.621094 3.925781 -6.824219 3.667969 -6.804688 C 1.707031 -6.621094 0.0195312 -5.335938 -0.679688 -3.484375 C -0.992188 -2.675781 -1.171875 -1.613281 -0.679688 -1.082031 C -0.347656 -0.679688 0.148438 -0.496094 0.640625 -0.585938 C 1.558594 -0.769531 2.382812 -1.980469 2.972656 -3.082031 C 2.933594 -2.640625 2.878906 -2.144531 2.804688 -1.632812 C 2.789062 -1.523438 2.75 -1.429688 2.695312 -1.355469 C 0.550781 1.355469 -1.394531 4.640625 -1.429688 6.710938 C -1.484375 7.261719 -1.285156 7.8125 -0.917969 8.214844 C -0.734375 8.398438 -0.511719 8.492188 -0.273438 8.492188 C -0.0742188 8.492188 0.128906 8.4375 0.292969 8.328125 C 1.503906 7.519531 3.042969 2.804688 3.648438 -0.933594 C 3.667969 -1.007812 3.703125 -1.082031 3.757812 -1.15625 C 4.402344 -1.945312 5.082031 -2.695312 5.796875 -3.410156 C 5.960938 -3.578125 6.21875 -3.59375 6.402344 -3.464844 C 8.417969 -2.109375 11.09375 -2.402344 12.78125 -4.144531 C 12.949219 -4.347656 12.949219 -4.640625 12.765625 -4.824219 Z M 0.550781 6.382812 C 0.128906 7.226562 -0.0195312 7.59375 -0.238281 7.519531 C -0.457031 7.464844 -0.476562 7.097656 -0.457031 6.730469 C -0.421875 5.320312 2.035156 0.53125 2.382812 0.679688 C 2.734375 0.824219 1.246094 4.933594 0.550781 6.382812 Z M 0.550781 6.382812 "/></g></g></g><g fill="#ffffff" fill-opacity="1"><g transform="translate(267.163747, 36.124114)"><g><path d="M 15.902344 -5.152344 C 15.808594 -5.246094 15.679688 -5.28125 15.550781 -5.28125 C 15.421875 -5.28125 15.3125 -5.226562 15.222656 -5.136719 C 13.570312 -3.394531 9.867188 -0.84375 7.152344 -0.84375 L 7.117188 -0.84375 C 6.363281 -0.808594 5.648438 -1.101562 5.136719 -1.632812 C 4.476562 -2.347656 4.933594 -4.292969 5.152344 -4.914062 C 5.246094 -5.152344 5.136719 -5.410156 4.914062 -5.5 C 4.714844 -5.613281 4.4375 -5.558594 4.308594 -5.355469 C 2.898438 -3.300781 0.878906 -1.300781 0.21875 -1.6875 C 0 -1.832031 0.332031 -3.246094 1.230469 -4.839844 C 1.339844 -5.0625 1.265625 -5.335938 1.046875 -5.464844 C 0.824219 -5.59375 0.53125 -5.539062 0.402344 -5.320312 C -0.21875 -4.238281 -1.523438 -1.613281 -0.273438 -0.863281 C 0.714844 -0.273438 2.054688 -1.230469 3.171875 -2.382812 C 3.28125 -2.511719 3.449219 -2.550781 3.59375 -2.496094 C 3.742188 -2.457031 3.851562 -2.328125 3.886719 -2.164062 C 3.941406 -1.722656 4.125 -1.320312 4.417969 -0.972656 C 5.117188 -0.238281 6.089844 0.164062 7.097656 0.128906 L 7.152344 0.128906 C 10.179688 0.128906 14.101562 -2.550781 15.917969 -4.457031 C 16.011719 -4.566406 16.046875 -4.675781 16.046875 -4.804688 C 16.046875 -4.933594 15.992188 -5.0625 15.902344 -5.152344 Z M 15.902344 -5.152344 "/></g></g></g><g fill="#ffffff" fill-opacity="1"><g transform="translate(282.326905, 36.124114)"><g><path d="M 15.386719 -4.714844 C 15.296875 -4.804688 15.183594 -4.878906 15.058594 -4.878906 C 14.929688 -4.898438 14.800781 -4.859375 14.707031 -4.785156 C 14.636719 -4.730469 7.574219 0.878906 1.6875 -1.539062 C 0.496094 -2.035156 0.441406 -2.675781 0.476562 -3.027344 C 0.476562 -3.082031 0.496094 -3.136719 0.550781 -3.171875 C 0.585938 -3.210938 0.660156 -3.210938 0.714844 -3.191406 C 1.90625 -3.117188 3.097656 -3.429688 4.125 -4.070312 C 5.007812 -4.640625 5.152344 -5.261719 5.097656 -5.667969 C 5.0625 -6.328125 4.53125 -6.859375 3.851562 -6.878906 C 2.402344 -6.949219 -0.0195312 -5.226562 -0.421875 -3.394531 C -0.585938 -2.714844 -0.570312 -1.429688 1.320312 -0.660156 C 2.476562 -0.183594 3.6875 0.0351562 4.914062 0.0351562 C 10.179688 0.0351562 15.058594 -3.832031 15.3125 -4.035156 C 15.40625 -4.109375 15.480469 -4.238281 15.480469 -4.347656 C 15.496094 -4.476562 15.460938 -4.601562 15.386719 -4.714844 Z M 1.136719 -4.308594 C 1.851562 -5.300781 3.042969 -5.960938 3.796875 -5.90625 C 4 -5.90625 4.109375 -5.832031 4.144531 -5.558594 C 4.164062 -5.375 3.960938 -5.117188 3.59375 -4.878906 C 2.84375 -4.382812 0.585938 -3.578125 1.136719 -4.308594 Z M 1.136719 -4.308594 "/></g></g></g><g clip-path="url(#8d1fd4e8fa)"><g fill="#ffffff" fill-opacity="1"><g transform="translate(297.013352, 36.124114)"><g><path d="M 12.582031 -5.082031 C 12.488281 -5.171875 12.378906 -5.207031 12.25 -5.207031 C 12.121094 -5.207031 11.996094 -5.171875 11.902344 -5.082031 C 10.140625 -3.410156 7.976562 -2.238281 5.613281 -1.667969 C 5.519531 -1.632812 5.410156 -1.667969 5.355469 -1.742188 C 5.300781 -1.832031 5.28125 -1.925781 5.335938 -2.015625 C 5.667969 -2.660156 5.59375 -3.429688 5.171875 -4.015625 C 4.914062 -4.363281 4.585938 -4.660156 4.199219 -4.878906 C 3.6875 -5.226562 3.117188 -5.628906 3.097656 -6.050781 C 3.117188 -6.289062 3.210938 -6.511719 3.375 -6.695312 L 4.363281 -7.628906 C 4.546875 -7.8125 4.566406 -8.105469 4.402344 -8.289062 C 4.238281 -8.492188 3.960938 -8.527344 3.742188 -8.363281 C 3.355469 -8.070312 2.988281 -7.738281 2.675781 -7.355469 L -0.148438 -4.714844 C -0.273438 -4.601562 -0.332031 -4.417969 -0.292969 -4.253906 C -0.257812 -4.070312 -0.128906 -3.941406 0.0351562 -3.886719 C 0.203125 -3.851562 0.386719 -3.886719 0.511719 -4.015625 L 1.90625 -5.320312 C 1.980469 -5.390625 2.074219 -5.410156 2.164062 -5.410156 C 2.253906 -5.390625 2.328125 -5.335938 2.367188 -5.261719 C 2.714844 -4.785156 3.15625 -4.382812 3.648438 -4.089844 C 3.925781 -3.925781 4.164062 -3.742188 4.363281 -3.503906 C 4.546875 -3.300781 4.640625 -3.027344 4.585938 -2.75 C 4.53125 -2.476562 4.363281 -2.238281 4.125 -2.109375 C 2.953125 -1.449219 1.46875 -1.761719 0.660156 -2.84375 C 0.53125 -3.042969 0.238281 -3.117188 0.0195312 -2.972656 C -0.203125 -2.84375 -0.273438 -2.566406 -0.148438 -2.328125 C 0.457031 -1.285156 1.539062 -0.605469 2.75 -0.511719 C 3.0625 -0.457031 3.355469 -0.441406 3.667969 -0.441406 C 6.765625 -0.441406 10.582031 -2.382812 12.582031 -4.402344 C 12.765625 -4.585938 12.765625 -4.898438 12.582031 -5.082031 Z M 12.582031 -5.082031 "/></g></g></g></g></svg>