<svg width="150" height="110" viewBox="0 0 128 95" fill="none" xmlns="http://www.w3.org/2000/svg">
<mask id="mask0_4_39" style="mask-type:luminance" maskUnits="userSpaceOnUse" x="62" y="20" width="58" height="60">
<path d="M70.5698 28.5175L119.239 20.584L110.806 71.479L62.137 79.4126L70.5698 28.5175Z" fill="white"/>
</mask>
<g mask="url(#mask0_4_39)">
<mask id="mask1_4_39" style="mask-type:luminance" maskUnits="userSpaceOnUse" x="61" y="20" width="57" height="61">
<path d="M117.044 65.5738L65.6116 80.2109L61.7605 34.6508L113.198 20.013L117.044 65.5738Z" fill="white"/>
</mask>
<g mask="url(#mask1_4_39)">
<mask id="mask2_4_39" style="mask-type:luminance" maskUnits="userSpaceOnUse" x="61" y="24" width="57" height="53">
<path d="M110.126 24.0815L61.7593 34.7781L68.6859 76.1596L117.052 65.463L110.126 24.0815Z" fill="white"/>
</mask>
<g mask="url(#mask2_4_39)">
<mask id="mask3_4_39" style="mask-type:luminance" maskUnits="userSpaceOnUse" x="62" y="26" width="55" height="48">
<path d="M107.836 26.3839L62.5283 32.198L71.3914 73.7302L116.699 67.9162L107.836 26.3839Z" fill="white"/>
</mask>
<g mask="url(#mask3_4_39)">
<mask id="mask4_4_39" style="mask-type:luminance" maskUnits="userSpaceOnUse" x="63" y="30" width="53" height="40">
<path d="M106.589 30.2648L63.2813 31.6008L72.6621 69.8302L115.969 68.4943L106.589 30.2648Z" fill="white"/>
</mask>
<g mask="url(#mask4_4_39)">
<path d="M97.4713 45.8321C97.5854 45.8349 97.6915 45.8396 97.7975 45.8473C98.0584 45.8629 98.3234 45.891 98.5885 45.9249C98.6293 45.9301 98.666 45.9319 98.7067 45.9371C99.0125 45.9792 99.3184 46.0331 99.6201 46.1013C99.9341 46.1682 100.248 46.2527 100.55 46.3446C100.615 46.3648 100.676 46.3844 100.738 46.4041C100.75 46.4086 100.758 46.4126 100.77 46.4171C100.994 46.4902 101.207 46.5588 101.419 46.5859C101.875 46.6414 102.169 46.4188 102.311 46.2684C102.348 46.2288 102.376 46.191 102.393 46.1665C102.584 45.9012 102.649 45.5458 102.587 45.1416C102.513 44.662 102.305 44.1917 102.072 43.6976C102.056 43.663 102.043 43.6319 102.027 43.5972C101.909 43.3484 101.79 43.0908 101.688 42.8323L101.651 42.9163L101.647 42.8921C101.598 42.9746 101.55 43.057 101.493 43.1384C101.252 43.4951 100.935 43.7856 100.539 44.0071C100.266 44.1614 99.9608 44.2819 99.6551 44.3936C99.5125 44.4463 99.3698 44.4961 99.2272 44.5429L99.0478 44.5998C98.6607 44.7276 98.2572 44.8593 97.9026 45.0239C97.813 45.0656 97.7356 45.1149 97.65 45.1601C97.3729 45.3109 97.1122 45.4786 96.884 45.6801C96.7904 45.7597 96.7007 45.8459 96.6152 45.9384C96.872 45.8382 97.1777 45.8241 97.4713 45.8321ZM71.7841 63.977C71.7678 63.9601 71.7515 63.9462 71.7392 63.9269C71.727 63.9046 71.7269 63.8839 71.7228 63.8598C71.7228 63.8538 71.7188 63.8474 71.7187 63.8415C71.7146 63.7877 71.7431 63.7352 71.8042 63.6957C71.9998 63.5758 72.1954 63.453 72.3869 63.3297C73.1203 62.8706 73.8414 62.3892 74.4769 61.8525C74.8313 61.5519 75.1653 61.2339 75.4503 60.8889C75.5806 60.7341 75.6864 60.5732 75.7882 60.4088C75.7963 60.395 75.8086 60.3848 75.8167 60.371C75.9225 60.1923 76.0202 60.0097 76.1219 59.8216C76.1992 59.6807 76.2766 59.5398 76.3539 59.3989C76.4231 59.2806 76.4963 59.1628 76.5737 59.0455C76.879 58.5908 77.3556 58.1727 77.9994 57.8116C78.6391 57.4469 79.3605 57.1667 80.0614 56.8927C80.6483 56.6632 81.2555 56.4246 81.8056 56.1431C81.9442 56.0692 82.0827 55.9893 82.2172 55.906C82.5105 55.7188 82.7875 55.5059 83.0645 55.2515C83.1867 55.14 83.3089 55.0196 83.4352 54.8909C83.9117 54.3871 84.4534 53.8679 85.2929 53.5407C86.1325 53.2194 87.0864 53.1819 88.0078 53.1461L88.4196 53.1308C88.6642 53.1177 88.8925 53.0996 89.0963 53.0725C89.459 52.9179 89.8217 52.7662 90.1885 52.6179C90.274 52.5816 90.3556 52.5506 90.4289 52.5186C90.5063 52.4842 90.5797 52.4462 90.649 52.4078C90.6652 52.3892 90.6774 52.3641 90.6897 52.342C90.71 52.3121 90.7344 52.2798 90.7507 52.2434C90.7588 52.2237 90.7792 52.2086 90.7955 52.1929C90.8199 52.1635 90.8566 52.1416 90.8974 52.1261C90.9177 52.1199 90.93 52.1096 90.9463 52.1058C90.9626 52.1049 90.9748 52.1035 90.987 52.0992C91.0725 51.9416 91.1008 51.7382 91.1169 51.5303C91.019 51.4734 90.9252 51.4082 90.8477 51.3568L90.8191 51.3384L90.7701 51.3025C90.7253 51.2731 90.6722 51.2457 90.6233 51.2187C90.558 51.1837 90.4887 51.1423 90.4193 51.0979C90.3908 51.0795 90.3622 51.0611 90.3336 51.0397C90.2684 50.9869 90.2112 50.9323 90.15 50.8772C90.0684 50.8017 89.999 50.7336 89.9093 50.6807C89.8032 50.6169 89.6931 50.5643 89.5789 50.5142C89.3668 50.422 89.1384 50.3514 88.9141 50.2901C88.8488 50.2729 88.7836 50.2557 88.7183 50.2385C88.4859 50.1821 88.2534 50.1287 88.021 50.0723C87.7315 50.0056 87.4419 49.939 87.1524 49.8635C86.973 49.8169 86.7813 49.7657 86.5855 49.7111C86.2307 49.6124 85.8515 49.4988 85.4192 49.3666C85.2397 49.314 85.0562 49.258 84.8727 49.2049C84.7422 49.1646 84.6076 49.1237 84.473 49.0828C83.8613 48.898 83.2454 48.695 82.6662 48.4345C82.5031 48.3633 82.3399 48.2892 82.1849 48.2043C81.9198 48.0639 81.6668 47.9014 81.418 47.7424C81.2548 47.6387 81.0957 47.5355 80.9325 47.4407C80.855 47.3923 80.7734 47.3464 80.6918 47.3034C80.4511 47.1691 80.2023 47.0574 79.9454 46.9861C79.7741 46.9346 79.5947 46.9027 79.4071 46.8906C78.9831 46.8658 78.6531 47.0395 78.3026 47.2223C78.2741 47.2364 78.2456 47.2505 78.2211 47.2651C77.8829 47.4406 77.5039 47.6168 77.0106 47.6069C76.9454 47.6074 76.876 47.6015 76.8027 47.5921C76.6029 47.5665 76.4113 47.5893 76.2074 47.5543C76.1177 47.5399 76.0279 47.5195 75.9586 47.4752C75.8852 47.4303 75.8362 47.356 75.8687 47.2981C75.8931 47.245 75.9787 47.2264 76.0603 47.2309C76.1418 47.2354 76.2234 47.2577 76.3049 47.2741C76.6026 47.327 76.7819 47.2316 77.0183 47.1643C77.2792 47.0913 77.5156 47.0387 77.7438 46.9201C77.7967 46.8943 77.8497 46.8656 77.9027 46.8369C77.9312 46.8228 77.9638 46.8093 77.9923 46.7922C78.1798 46.695 78.3795 46.6022 78.5995 46.5328C78.7544 46.4876 78.9134 46.4459 79.0968 46.4339C79.4434 46.4073 79.7736 46.4584 80.0836 46.5454C80.1896 46.5767 80.2916 46.6105 80.3895 46.6496C80.3282 46.556 80.2792 46.461 80.2302 46.369C80.1975 46.3116 80.1608 46.2566 80.1322 46.1997C80.0137 45.9569 79.94 45.7109 79.8746 45.4955C79.8337 45.3572 79.7846 45.2119 79.6989 45.0915C79.6703 45.0494 79.6376 45.0097 79.5968 44.9749C79.4826 44.8716 79.3072 44.7989 79.1196 44.7216C79.0339 44.687 78.9523 44.6529 78.8748 44.6163C78.6627 44.5182 78.4751 44.3818 78.3037 44.2298C78.2588 44.1856 78.2057 44.1522 78.1649 44.1055C78.0996 44.038 78.0425 43.9716 77.9935 43.9032C77.8343 43.7024 77.7158 43.4921 77.5974 43.2877C77.5525 43.208 77.5035 43.1278 77.4545 43.0446C77.4218 42.9961 77.3973 42.9456 77.3646 42.9C77.1604 42.59 76.5115 41.8623 75.9571 41.9569C75.8837 41.9712 75.8185 42.0012 75.7451 42.0185C75.6759 42.0362 75.5821 42.036 75.5127 41.9976C75.4475 41.9597 75.4148 41.8934 75.427 41.8387C75.4391 41.7841 75.4839 41.7396 75.541 41.7084C75.6836 41.6202 75.8956 41.5971 76.0954 41.6434C76.4094 41.7161 76.6459 41.7257 76.9437 41.8999C77.2455 42.0745 77.4822 42.3118 77.67 42.5518C77.6741 42.5582 77.6823 42.5622 77.6864 42.5716C77.8415 42.7718 77.964 42.9827 78.0784 43.1836C78.1519 43.3143 78.2295 43.4396 78.3071 43.5589C78.352 43.6268 78.3969 43.6946 78.4459 43.76C78.5643 43.9083 78.6867 44.0215 78.8173 44.1181C78.8581 44.147 78.8948 44.1842 78.9397 44.2077C79.0457 44.2715 79.1722 44.3232 79.3027 44.3784C79.3435 44.3954 79.3843 44.4125 79.421 44.429C79.5352 44.4761 79.6494 44.5292 79.7595 44.5936C79.7962 44.616 79.833 44.6444 79.8697 44.6698C79.9513 44.7305 80.0288 44.7966 80.0941 44.873C80.1594 44.9494 80.2125 45.039 80.2575 45.1305C80.2779 45.1715 80.3024 45.2102 80.3187 45.2537C80.3269 45.2724 80.331 45.2937 80.3392 45.3154C80.3719 45.4083 80.4046 45.5042 80.4332 45.5995C80.4619 45.7067 80.4946 45.8114 80.5355 45.9172C80.7031 46.3349 80.9807 46.7519 81.3399 47.1232C81.4133 47.1651 81.4827 47.2095 81.552 47.2539C81.6377 47.3062 81.7234 47.3586 81.809 47.411L82.0456 47.5566C82.7963 48.0194 83.6405 48.3079 84.5296 48.5844C84.656 48.6242 84.7784 48.6635 84.9089 48.7039L85.0598 48.7528L85.2229 48.8003C85.3534 48.8436 85.488 48.8815 85.6226 48.9224C86.2832 49.1194 86.9765 49.3116 87.7228 49.5018C88.0246 49.5759 88.3304 49.6506 88.6485 49.7268C88.7056 49.74 88.7668 49.7567 88.8239 49.7699C89.2684 49.8801 89.721 50.012 90.1249 50.2263C90.2269 50.2808 90.3166 50.3425 90.4023 50.4038C90.4513 50.4396 90.5043 50.476 90.5492 50.5113C90.5655 50.5223 90.5818 50.5332 90.5981 50.5471C90.6879 50.6148 90.7777 50.6795 90.8756 50.7305C90.8919 50.7415 90.9082 50.7524 90.9245 50.7634C90.9408 50.7744 90.9572 50.7853 90.9735 50.7963C90.9898 50.8102 91.002 50.8177 91.0224 50.8321C91.051 50.8535 91.0877 50.8701 91.1244 50.8866C91.1489 50.8986 91.1652 50.9125 91.1897 50.9216C91.2344 50.7469 91.332 50.5346 91.5806 50.4157C91.658 50.3782 91.7436 50.3508 91.8496 50.3348C92.037 50.1784 92.3386 50.1164 92.6893 50.1702C92.8768 50.1972 93.0644 50.2567 93.2358 50.3348C93.4438 50.4295 93.6274 50.5505 93.7661 50.6955C93.7947 50.6814 93.8191 50.6638 93.8476 50.6468C93.8924 50.62 93.9373 50.5961 93.9821 50.5664C94.1288 50.4669 94.2183 50.3453 94.2711 50.1657C94.3321 49.9636 94.3808 49.7599 94.4295 49.5561C94.4336 49.5271 94.4417 49.4985 94.4498 49.473C94.4823 49.3322 94.5148 49.1915 94.5513 49.0513C94.5838 48.9164 94.6204 48.791 94.6529 48.671C94.6976 48.5081 94.7422 48.3542 94.7869 48.212C94.8154 48.121 94.8438 48.033 94.8723 47.9479C94.9211 47.7945 94.978 47.6539 95.0349 47.5133C95.0553 47.4627 95.0715 47.4027 95.0959 47.3556C95.1081 47.3216 95.1244 47.2912 95.1407 47.2578C95.2058 47.1094 95.2709 46.9639 95.34 46.8279C95.4133 46.6894 95.4906 46.5603 95.572 46.4347C95.5842 46.4097 95.6005 46.3822 95.6168 46.3577C95.7104 46.21 95.8122 46.0722 95.9221 45.9384C96.4352 45.3121 97.1237 44.8295 97.9673 44.5058C98.2241 44.4085 98.489 44.3212 98.7539 44.2339C99.4346 44.0135 100.074 43.8026 100.543 43.425C100.653 43.3326 100.755 43.2332 100.84 43.1289C101.113 42.8089 101.288 42.4321 101.451 42.0419C101.426 41.9205 101.406 41.7966 101.389 41.6762C101.377 41.6036 101.36 41.5306 101.348 41.4551C101.291 41.0751 101.225 40.6468 101.021 40.248C100.874 39.966 100.637 39.711 100.384 39.439L100.204 39.2416C99.9636 38.9801 99.7309 38.6693 99.6571 38.3346L99.5511 38.2589L99.5713 38.1551C99.6403 37.815 99.5013 37.4246 99.2034 37.1114C99.1054 37.0101 98.9952 36.9191 98.8851 36.8281C98.8157 36.769 98.7422 36.7093 98.6729 36.6472C98.4403 36.44 98.3015 36.2448 98.2319 36.0289L98.2074 35.9548C98.1869 35.8871 98.1665 35.8165 98.1297 35.7497C98.093 35.6888 98.044 35.6293 97.9746 35.5672C97.8359 35.44 97.6441 35.3297 97.4769 35.2314L97.4238 35.2009C97.2362 35.0911 97.0445 34.9779 96.869 34.843C96.6936 34.7052 96.5344 34.5429 96.367 34.3322C96.2772 34.2202 96.1915 34.1028 96.1098 33.9858C95.9384 33.751 95.7791 33.5295 95.5628 33.3333C95.2854 33.0819 94.8978 32.8844 94.4003 32.7408C93.9802 32.6161 93.5317 32.5409 93.0954 32.4673L92.9119 32.4379C92.2839 32.3309 91.766 32.2143 91.2807 32.0694C90.1755 31.7386 89.1109 31.2474 88.2052 30.6524C87.9237 30.4656 87.6829 30.1982 87.4381 29.9835C87.3687 29.9243 87.2993 29.8445 87.3482 29.7916C87.3807 29.7514 87.4623 29.753 87.5275 29.7761C87.5928 29.8022 87.6418 29.844 87.6948 29.8833C88.1477 30.2458 88.7881 30.5703 89.3266 30.8551C89.8936 31.1554 90.4973 31.4102 91.1212 31.6142C91.627 31.7795 92.1693 31.9111 92.7321 32.0127L93.1072 32.0755C93.4864 32.1389 93.8779 32.2067 94.2694 32.3042C94.8729 32.4524 95.3461 32.6549 95.7133 32.9178C96.1009 33.1951 96.3417 33.5276 96.5745 33.8502L96.6643 33.9681C96.8031 34.1574 96.9256 34.3121 97.0725 34.4551C97.199 34.5748 97.3581 34.6927 97.5743 34.821L97.7171 34.9043C98.072 35.1124 98.4759 35.3474 98.6515 35.7011C98.6883 35.7798 98.7128 35.8568 98.7374 35.9339C98.7497 35.9739 98.7619 36.011 98.7742 36.048C98.8028 36.1256 98.8477 36.1994 98.913 36.2728C99.0069 36.3824 99.1293 36.4839 99.264 36.5928C99.317 36.638 99.3742 36.6838 99.4272 36.732C99.6516 36.9263 99.8231 37.1405 99.9415 37.3597C99.9904 37.3009 100.035 37.2445 100.084 37.1887L100.19 37.0721C100.418 36.8145 100.638 36.5705 100.74 36.276C100.756 36.2189 100.768 36.1554 100.78 36.0919C100.788 36.0575 100.8 36.0265 100.804 35.9916L100.764 35.9006L100.817 35.86C100.821 35.7482 100.804 35.6337 100.792 35.5168C100.784 35.4625 100.792 35.4074 100.779 35.3496C100.759 35.2494 100.726 35.1506 100.698 35.0523C100.677 34.9787 100.661 34.9056 100.636 34.8345C100.612 34.7663 100.579 34.7 100.554 34.6347C100.444 34.3663 100.317 34.1076 100.195 33.879C99.9416 33.4148 99.774 32.9882 99.4433 32.5348C99.3984 32.4699 99.3454 32.3981 99.3371 32.329C99.3289 32.2895 99.3493 32.2448 99.3982 32.2481C99.4267 32.2488 99.4553 32.2702 99.4798 32.2881C99.9898 32.6817 100.243 33.0276 100.521 33.5037C100.655 33.7339 100.774 33.9649 100.888 34.1984C100.945 34.3181 101.011 34.4329 101.06 34.5516C101.084 34.4719 101.117 34.3903 101.17 34.3113C101.202 34.2623 101.255 34.2188 101.3 34.1713C101.329 34.1454 101.345 34.1149 101.377 34.0895C101.39 34.0793 101.406 34.0725 101.418 34.0622C101.496 34.0011 101.585 33.9417 101.695 33.8818C101.773 33.8385 101.858 33.7992 101.944 33.7569C101.989 33.736 102.033 33.7152 102.078 33.6943C102.156 33.6569 102.237 33.62 102.315 33.5796C102.396 33.5398 102.469 33.496 102.547 33.4497C102.559 33.4394 102.575 33.4326 102.6 33.418C102.685 33.3639 102.763 33.3088 102.84 33.2477C102.897 33.2018 102.95 33.1524 103.003 33.103C103.235 32.8784 103.423 32.6155 103.545 32.3325C103.691 31.9875 103.74 31.6092 103.69 31.2362C103.686 31.2091 103.678 31.1844 103.674 31.1573C103.67 31.136 103.67 31.1183 103.666 31.0971C103.653 31.0304 103.641 30.9638 103.633 30.9036C103.78 30.9135 103.947 30.9024 104.073 30.9896C104.461 31.261 104.209 32.0804 104.115 32.3582C104.079 32.457 104.042 32.5559 103.993 32.6472C103.896 32.8446 103.77 33.0296 103.619 33.2025C103.554 33.274 103.489 33.3455 103.411 33.4154C103.379 33.4438 103.342 33.4716 103.309 33.5C103.167 33.6178 103.02 33.7261 102.857 33.8206C102.714 33.8999 102.564 33.9723 102.413 34.0417L102.336 34.0791L102.221 34.1325C102.152 34.168 102.079 34.2059 102.014 34.2449C101.993 34.2541 101.973 34.2633 101.957 34.276C101.928 34.2901 101.912 34.3117 101.887 34.3293C101.83 34.3663 101.773 34.4034 101.732 34.4484C101.655 34.5302 101.61 34.6309 101.586 34.7461C101.578 34.7894 101.562 34.8317 101.558 34.8815C101.558 34.9317 101.562 34.9855 101.566 35.0363C101.566 35.0866 101.566 35.1369 101.57 35.1877C101.57 35.2379 101.57 35.2853 101.574 35.3361C101.574 35.3745 101.579 35.4105 101.579 35.449C101.579 35.4667 101.579 35.4845 101.579 35.4992C101.575 35.62 101.558 35.7539 101.493 35.8816C101.469 35.9317 101.436 35.9778 101.396 36.0229C101.379 36.0445 101.359 36.0626 101.339 36.0807C101.306 36.3308 101.213 36.5584 101.087 36.7699C101.062 36.8112 101.046 36.8564 101.017 36.8942C100.916 37.0349 100.798 37.1676 100.679 37.2974C100.533 37.4561 100.398 37.6045 100.297 37.7718C100.26 37.8292 100.24 37.8858 100.219 37.9453C100.15 38.1375 100.163 38.3372 100.257 38.5415C100.285 38.6043 100.314 38.6641 100.355 38.7256C100.485 38.9138 100.653 39.092 100.828 39.2771C100.963 39.4185 101.098 39.56 101.216 39.7082C101.604 40.1866 101.743 40.6865 101.833 41.1771C101.906 41.0327 101.984 40.9036 102.061 40.7863C102.151 40.6499 102.248 40.5264 102.35 40.4153C102.562 40.1881 102.827 39.9676 103.14 39.7594C103.157 39.7526 103.173 39.7429 103.189 39.7331C103.479 39.5484 103.906 39.408 104.082 39.1643C104.183 39.0265 104.236 38.9386 104.411 38.8369C104.566 38.7473 104.746 38.6697 104.823 38.5228C104.876 38.4143 104.863 38.2855 104.92 38.1775C104.977 38.0665 105.112 37.9921 105.21 37.9011C105.373 37.7534 105.45 37.5592 105.564 37.3875C105.714 37.1643 105.996 37.0022 106.13 36.7769C106.24 36.5958 106.264 36.3682 106.382 36.1941C106.484 36.0385 106.643 35.9702 106.61 35.756C106.602 35.684 106.577 35.601 106.642 35.5591C106.72 35.5039 106.875 35.5622 106.948 35.6367C107.234 35.9305 106.986 36.2743 106.839 36.5069C106.619 36.8514 106.436 37.1916 106.147 37.5065C106.008 37.6574 105.866 37.8047 105.719 37.9515C105.507 38.1669 105.288 38.3901 105.1 38.6205C105.023 38.714 104.962 38.7979 104.901 38.8847L104.954 38.8619C105.019 38.8348 105.08 38.8101 105.145 38.7829L105.549 38.6217C106.763 38.1325 108.035 37.698 108.772 36.8046C108.882 36.8897 108.911 37.0117 108.878 37.111C108.703 37.6653 107.77 38.1106 107.179 38.3928C107.114 38.4258 107.045 38.4584 106.98 38.4885C106.813 38.5647 106.641 38.6344 106.47 38.7071C106.356 38.7546 106.246 38.8086 106.132 38.8531L105.745 39.0135C105.57 39.0827 105.39 39.184 105.195 39.224C105.056 39.2506 104.966 39.2332 104.832 39.2869C104.514 39.4178 104.221 39.5931 103.944 39.7646C103.381 40.1096 102.868 40.5141 102.542 41.0076C102.327 41.329 102.18 41.6917 102.038 42.0402L102.026 42.0623L101.997 42.1385L102.009 42.1903C102.095 42.5562 102.247 42.9156 102.414 43.283C102.455 43.3681 102.492 43.4527 102.533 43.5407C102.578 43.6411 102.623 43.7444 102.672 43.8453C102.798 44.1277 102.925 44.416 103.011 44.705C103.052 44.8374 103.101 45.024 103.125 45.2342C103.187 45.7685 103.098 46.4579 102.381 46.8274C102.177 46.9285 101.953 46.9856 101.713 46.9932C101.619 46.996 101.525 46.9869 101.431 46.9779C101.248 46.9544 101.068 46.9107 100.905 46.8603C100.877 46.8536 100.844 46.8436 100.82 46.8345C100.762 46.8183 100.709 46.8027 100.652 46.7865C100.179 46.6402 99.6735 46.5015 99.1516 46.4021C99.0904 46.3913 99.0333 46.3781 98.9722 46.3673C98.6745 46.3203 98.3768 46.2822 98.0833 46.2594C98.0384 46.2567 97.9976 46.2544 97.9569 46.2521C97.7571 46.2354 97.5655 46.2286 97.3779 46.2312C97.3331 46.2344 97.2801 46.2305 97.2352 46.2337C96.9947 46.2472 96.8317 46.321 96.7095 46.465C96.6077 46.591 96.5222 46.7249 96.4368 46.8589L96.3513 46.9869C96.2577 47.1317 96.16 47.2877 96.0664 47.4532C95.989 47.5882 95.9117 47.7261 95.8466 47.8716C95.8019 47.9694 95.7612 48.0647 95.7246 48.1635C95.6962 48.2427 95.6759 48.3258 95.6515 48.4085C95.5946 48.6111 95.5459 48.8178 95.5012 49.0221C95.4728 49.1574 95.4444 49.2928 95.412 49.4276C95.2658 50.021 94.9731 50.85 94.0643 51.2452C94.1134 51.4437 94.1136 51.6567 94.065 51.8929C94.0976 51.9267 94.118 51.9618 94.1466 51.998C94.1956 52.0546 94.2486 52.1116 94.2854 52.1725C94.314 52.2205 94.3303 52.267 94.3467 52.3134C94.3549 52.3322 94.359 52.3475 94.3671 52.3663C94.3753 52.4088 94.3876 52.4547 94.3917 52.4907C94.3999 52.5006 94.404 52.5071 94.4081 52.5135C94.4203 52.5299 94.4326 52.5462 94.4407 52.5621C94.4693 52.613 94.4898 52.663 94.5061 52.7124C94.5102 52.7188 94.5102 52.7247 94.5143 52.7312C94.5306 52.7776 94.5429 52.8235 94.5552 52.8636C94.5593 52.8789 94.5634 52.8942 94.5675 52.9065C94.5675 52.9124 94.5716 52.9218 94.5716 52.9278L94.7226 53.1216L94.8124 53.2366C94.8614 53.2576 94.9144 53.2733 94.9633 53.2884C95.0775 53.3267 95.1999 53.3631 95.3304 53.3975C95.3548 53.4036 95.3752 53.4092 95.3956 53.4147C95.4976 53.4426 95.5954 53.4669 95.6892 53.4967C95.8157 53.5365 95.9299 53.5866 96.04 53.6392C96.1787 53.7072 96.3133 53.7865 96.4439 53.8831C96.4683 53.901 96.4928 53.916 96.5173 53.9339C96.6193 54.0032 96.7132 54.0802 96.7825 54.1483C96.7948 54.1587 96.807 54.1662 96.8193 54.1766C96.8437 54.1916 96.8682 54.2036 96.8927 54.2156C96.909 54.2265 96.9253 54.2375 96.9457 54.2431C96.9702 54.2551 96.9987 54.2617 97.0232 54.2707C97.0395 54.2758 97.0599 54.2814 97.0762 54.2864C97.1048 54.293 97.1292 54.2932 97.1578 54.2968C97.1782 54.2994 97.1945 54.3015 97.2108 54.3036C97.2393 54.3043 97.2719 54.3026 97.3005 54.3003C97.3208 54.3 97.3372 54.2991 97.3575 54.2988C97.3861 54.2935 97.4187 54.2888 97.4513 54.2842C97.4717 54.2808 97.488 54.277 97.5084 54.2737C97.541 54.2661 97.5736 54.2584 97.6062 54.2478C97.6306 54.2421 97.651 54.2388 97.6755 54.233C97.704 54.2248 97.7366 54.2142 97.7651 54.2031C97.7937 54.1949 97.8222 54.1867 97.863 54.1742C97.92 54.1549 97.9812 54.1332 98.0423 54.1114C98.242 54.0424 98.4498 53.9714 98.67 53.9256C98.67 53.9256 98.5965 53.8837 98.5925 53.8832L98.727 53.9063L98.8534 53.8722C99.0001 53.8319 99.155 53.8369 99.3182 53.8874C99.3956 53.8973 99.4772 53.9136 99.5588 53.933C99.6403 53.9552 99.7178 53.9829 99.7912 54.013C99.8402 54.034 99.8769 54.0595 99.9177 54.0942C99.9463 54.1245 99.9708 54.1602 99.983 54.1943C100.012 54.195 100.044 54.1873 100.081 54.1743C100.101 54.1651 100.113 54.1548 100.13 54.1451C100.142 54.1377 100.158 54.131 100.17 54.1266C100.244 54.0798 100.346 54.016 100.537 54.008C100.704 54.0028 100.876 54.0336 101.051 54.0767C101.328 54.1418 101.606 54.2453 101.855 54.3422C101.997 54.3989 102.14 54.4586 102.283 54.5183C102.328 54.5388 102.368 54.5529 102.413 54.5734C102.695 54.6923 102.964 54.8066 103.241 54.9012C103.502 54.9908 103.771 55.049 104.049 55.1052C104.208 55.1344 104.363 55.1661 104.526 55.1958C104.958 55.2719 105.403 55.3524 105.839 55.4941C105.937 55.5243 106.039 55.5581 106.137 55.5972C106.243 55.6374 106.341 55.6825 106.438 55.7305C107.12 56.0632 107.642 56.5352 108.148 56.9933L108.226 57.0653C108.74 57.5274 109.323 58.0102 109.98 58.2776C110.575 58.5165 111.158 58.4551 111.77 58.6665C111.79 58.6721 111.811 58.6806 111.823 58.6969C111.848 58.7267 111.811 58.7545 111.778 58.771C111.477 58.9247 111.179 59.0344 110.776 58.9088C110.437 58.8034 110.082 58.7313 109.748 58.5998C109.075 58.3332 108.553 57.9204 108.043 57.5002L107.843 57.3208C107.084 56.65 106.365 56.0169 105.26 55.766C105.012 55.7105 104.759 55.6663 104.502 55.6215C104.392 55.6015 104.273 55.5805 104.159 55.5599C103.923 55.5178 103.682 55.4693 103.442 55.4059C103.368 55.3847 103.303 55.3586 103.234 55.335C102.879 55.2245 102.536 55.0889 102.206 54.9491C102.026 54.8758 101.847 54.7996 101.663 54.7288C101.594 54.7022 101.516 54.6715 101.435 54.6404C101.333 54.6037 101.219 54.5684 101.109 54.5365C100.994 54.5042 100.88 54.4748 100.774 54.4612C100.709 54.4528 100.668 54.4654 100.603 54.4984C100.587 54.5082 100.566 54.5174 100.546 54.5295C100.448 54.588 100.322 54.6605 100.118 54.664C99.8449 54.6734 99.6164 54.5377 99.4369 54.429C99.3961 54.403 99.3594 54.3806 99.3227 54.3611C99.2167 54.3505 99.1148 54.3641 99.0088 54.386C98.8743 54.4161 98.7357 54.4634 98.6012 54.5201C98.5483 54.5429 98.4953 54.5627 98.4423 54.5855C98.4138 54.5996 98.3893 54.6083 98.3608 54.6194C98.2549 54.665 98.153 54.7081 98.0511 54.7424C97.9696 54.7704 97.888 54.7866 97.8024 54.8052C97.6557 54.8367 97.513 54.8628 97.3703 54.8652C97.3989 54.9103 97.4275 54.9583 97.4561 55.0063C97.501 55.083 97.546 55.1598 97.595 55.24C97.6113 55.2746 97.6317 55.3097 97.6521 55.3419C97.8727 55.725 98.1095 56.1102 98.5094 56.3832C98.6073 56.4489 98.7174 56.5044 98.8275 56.5511C99.0763 56.6569 99.3496 56.7303 99.6391 56.8028C99.8145 56.846 99.9939 56.8926 100.165 56.9441C100.822 57.1465 101.401 57.4395 101.797 57.8805C101.87 57.9609 101.944 58.0383 102.038 58.1065C102.205 58.2255 102.421 58.3005 102.58 58.4244C102.613 58.4493 102.641 58.4795 102.646 58.5096C102.65 58.5575 102.589 58.5851 102.527 58.5832C102.466 58.5843 102.405 58.5587 102.348 58.5336C101.475 58.1646 100.896 57.5551 99.9413 57.291C99.8434 57.2637 99.7456 57.2393 99.6436 57.2174C99.611 57.2073 99.5743 57.1997 99.5417 57.1896C99.35 57.1443 99.1542 57.0927 98.9585 57.0321C98.8239 56.9912 98.6893 56.9474 98.5547 56.8888C98.5262 56.8762 98.5017 56.8613 98.4772 56.8493C97.8531 56.5476 97.4857 56.0717 97.1876 55.5989C97.1345 55.5181 97.0814 55.4315 97.0284 55.3419C96.8977 55.1241 96.7629 54.8998 96.5955 54.698C96.5874 54.694 96.5792 54.687 96.567 54.6825C96.4895 54.643 96.4161 54.5981 96.3426 54.5444C96.2651 54.4871 96.1957 54.425 96.1182 54.353C96.0366 54.2775 95.955 54.202 95.8652 54.1491C95.8448 54.1376 95.8244 54.1261 95.8326 54.1301C95.6817 54.0724 95.5185 54.0278 95.3432 53.9817C95.2127 53.9443 95.0822 53.9099 94.9558 53.87C94.9476 53.869 94.9394 53.865 94.9354 53.8644C94.919 53.8594 94.9068 53.8549 94.8905 53.8469C94.7763 53.8086 94.6662 53.7679 94.5683 53.7169C94.4541 53.6727 94.3562 53.6247 94.2624 53.5742C94.242 53.5628 94.2175 53.5507 94.1971 53.5393C94.1359 53.5019 94.0829 53.4625 94.0298 53.4203C93.9564 53.3665 93.8911 53.3049 93.838 53.2419C93.8298 53.232 93.8258 53.2226 93.8176 53.2127C93.7809 53.1666 93.7482 53.121 93.7237 53.0735C93.7155 53.0577 93.7114 53.0394 93.7033 53.0206C93.6828 52.9766 93.6624 52.9356 93.6542 52.8902C93.5443 53.0476 93.418 53.1615 93.2795 53.2414C93.304 53.2711 93.3203 53.3028 93.3407 53.335C93.3979 53.4251 93.4469 53.5142 93.4715 53.606C93.4755 53.6125 93.4755 53.6184 93.4756 53.6273C93.5738 53.9918 93.4478 54.366 93.334 54.7122C93.2974 54.8199 93.2608 54.9275 93.2323 55.0304C93.1755 55.2419 93.1431 55.4418 93.1881 55.628C93.2086 55.7223 93.2494 55.8103 93.3188 55.8961C93.3433 55.9317 93.3882 55.97 93.4372 56.0058C93.4657 56.0302 93.4943 56.0516 93.5229 56.076C93.5678 56.1113 93.6167 56.1471 93.6657 56.1859C93.7922 56.2938 93.9105 56.4184 93.9392 56.5847C93.9884 56.8512 93.7725 57.0276 93.6137 57.1551L93.5485 57.2118C93.2104 57.4998 93.3656 57.8094 93.7574 58.1938C93.888 58.3228 94.0471 58.4615 94.2226 58.6082C94.394 58.7543 94.5572 58.8935 94.6878 59.0256C95.5424 59.8825 95.6066 60.6518 95.6982 61.6154C95.7037 61.6734 95.8276 61.9062 95.7204 62.1341C95.6504 62.3678 94.9267 63.0724 94.798 63.1827C94.5577 63.3944 94.2725 63.5708 93.9913 63.7418C93.7306 63.8977 93.4616 64.0584 93.2621 64.2517C93.0625 64.4391 92.9445 64.6546 92.9243 64.8679C92.9203 64.9413 92.9285 65.0163 92.9449 65.0864C92.9531 65.1229 92.9613 65.1565 92.9776 65.1911C93.0185 65.2881 93.092 65.3891 93.2103 65.5107C93.243 65.5475 93.2797 65.5817 93.3164 65.616C93.3368 65.6364 93.3572 65.6567 93.3777 65.6771C93.4021 65.7009 93.4266 65.7247 93.4511 65.7486C93.4919 65.7893 93.5368 65.8305 93.5776 65.8712C93.647 65.9452 93.6919 66.0219 93.7491 66.0972C93.7817 66.1399 93.8266 66.187 93.8511 66.2315C93.99 66.4593 94.0677 66.7117 94.0761 66.9553C94.0803 67.0268 94.064 67.0957 94.0559 67.1627C94.0398 67.3351 93.9992 67.5014 93.9178 67.6506C93.8039 67.8608 93.6287 68.0424 93.4087 68.1799C93.3924 68.1896 93.3761 68.1964 93.3598 68.2061C93.0746 68.3707 92.7118 68.4189 92.3203 68.2771C92.2754 68.2595 92.2224 68.2291 92.2305 68.1976C92.5688 68.1256 92.8826 67.9735 93.1148 67.7903C93.3755 67.5901 93.5342 67.3117 93.5461 66.9909C93.5501 66.8938 93.5419 66.7982 93.5214 66.695C93.4968 66.5943 93.4641 66.4984 93.4151 66.4064C93.3661 66.3084 93.3007 66.2143 93.2273 66.128C93.1987 66.0948 93.166 66.0669 93.1334 66.0332C93.0844 65.9826 93.0314 65.9284 92.9783 65.8773L92.9171 65.8192L92.8804 65.782C92.7661 65.6697 92.6355 65.5318 92.5416 65.3778C92.4558 65.2367 92.4108 65.089 92.3984 64.9396C92.3737 64.6673 92.4713 64.39 92.6749 64.1381C92.9232 63.8298 93.2899 63.6106 93.6444 63.3987C93.84 63.2848 94.0234 63.1752 94.1863 63.0511C94.4389 62.8617 94.6548 62.6439 94.8298 62.4031C94.9683 62.2138 95.0904 62.0136 95.1839 61.8038C95.1839 61.8008 95.1839 61.7949 95.188 61.7895C95.1261 61.0748 95.0111 60.2498 94.4233 59.5299C94.3253 59.4079 94.2029 59.2917 94.0683 59.1769C93.9662 59.0869 93.8561 58.9989 93.7418 58.9074C93.5664 58.7666 93.3909 58.6259 93.2277 58.4719C93.0685 58.3185 92.9216 58.1518 92.8154 57.9667C92.6929 57.7529 92.5702 57.4296 92.7126 57.1344C92.7452 57.0587 92.8144 56.9937 92.8836 56.9256C92.9203 56.8978 92.9488 56.866 92.9855 56.8381C93.0995 56.7404 93.2625 56.6074 93.2094 56.5385C93.1849 56.4999 93.1156 56.4526 93.0462 56.4053C92.9768 56.358 92.9075 56.3077 92.8422 56.2461C92.8014 56.2113 92.7769 56.1697 92.7442 56.133C92.683 56.0571 92.6299 55.9794 92.5891 55.8973C92.5646 55.8557 92.5401 55.8141 92.5237 55.7706C92.4378 55.529 92.4458 55.2934 92.4822 55.0851C92.4822 55.0763 92.4822 55.0704 92.4863 55.062C92.4944 55.0009 92.5066 54.9434 92.5228 54.8893C92.5472 54.7977 92.5797 54.6984 92.6122 54.5902C92.6285 54.542 92.6447 54.4938 92.661 54.4427C92.665 54.4373 92.665 54.4343 92.665 54.4284C92.6691 54.42 92.6732 54.4117 92.6732 54.4028C92.787 54.0389 92.8559 53.6603 92.5824 53.3887C92.5743 53.3788 92.5702 53.3724 92.562 53.3654C92.4927 53.3595 92.4193 53.3501 92.3459 53.3407C92.2399 53.3271 92.1298 53.3101 92.0197 53.2901C91.7465 53.2462 91.4366 53.1947 91.0901 53.1858C91.0534 53.187 91.0208 53.1888 90.9841 53.19C90.927 53.1916 90.8699 53.1902 90.8128 53.1976C90.7884 53.2123 90.7599 53.2234 90.7354 53.238C90.6702 53.274 90.6009 53.3095 90.5276 53.3415C90.495 53.3521 90.4583 53.3622 90.4257 53.3758C90.3523 53.4048 90.2749 53.4334 90.1893 53.4579C90.1445 53.4699 90.0956 53.4784 90.0467 53.4899C89.9651 53.512 89.8877 53.5316 89.8021 53.5473C89.7409 53.5572 89.6757 53.5666 89.6146 53.5765C89.533 53.5897 89.4556 53.6035 89.37 53.6132C89.37 53.6132 89.3415 53.6214 89.3455 53.6249L89.1784 53.6745L89.1458 53.6851L89.0969 53.6404C88.9216 53.6564 88.7422 53.6689 88.5506 53.6769C88.3794 53.6875 88.204 53.6917 88.0287 53.6988C87.6088 53.716 87.2093 53.7299 86.8546 53.7732C86.5081 53.8146 86.1821 53.9 85.8723 54.0082C85.4607 54.1507 85.0899 54.3516 84.7681 54.6032C84.7029 54.6569 84.6295 54.7008 84.5684 54.758C84.3892 54.9214 84.2222 55.0892 84.0593 55.2606C83.7742 55.5494 83.481 55.843 83.1306 56.1057C83.0654 56.1536 83.0003 56.2014 82.931 56.2487C82.8821 56.2809 82.825 56.3091 82.7721 56.3408C82.0753 56.7602 81.2766 57.0778 80.4941 57.3828C80.2618 57.4713 80.0213 57.5648 79.789 57.6592C79.5527 57.7532 79.3204 57.8535 79.0963 57.955C79.08 57.9647 79.0637 57.9715 79.0474 57.9812C78.3301 58.3182 77.829 58.6503 77.4788 59.0313C77.2018 59.33 77.0269 59.6713 76.8397 60.0318C76.7502 60.2007 76.6566 60.375 76.5507 60.5448C76.4897 60.6464 76.4286 60.748 76.3594 60.8486C75.3701 62.1887 73.781 63.1444 72.2408 64.0651C72.1267 64.1303 71.9596 64.1119 71.8412 64.0287C71.829 64.0212 71.8168 64.0167 71.8086 64.0097C71.7964 63.9993 71.7923 63.9869 71.7841 63.977Z" fill="white"/>
</g>
</g>
</g>
</g>
</g>
<path d="M0.51 77V76.87C0.81 76.78 0.91 76.55 0.91 75.73V71.27C0.91 70.45 0.81 70.22 0.51 70.13V70H2.9C5.65 70 6.73 71.75 6.74 73.37C6.75 75.48 5.33 77 3.13 77H0.51ZM1.73 76.12C1.73 76.59 1.83 76.85 2.38 76.85H3.11C4.86 76.85 5.83 75.86 5.83 73.77C5.83 71.77 4.64 70.15 2.41 70.15H1.73V76.12ZM12.8461 77.07C12.0761 77.07 11.9161 76.51 11.4761 75.47C10.8961 74.09 10.8161 73.39 9.61609 73.39H8.97609V75.73C8.97609 76.55 9.06609 76.78 9.37609 76.87V77H7.75609V76.87C8.06609 76.78 8.15609 76.55 8.15609 75.73V71.27C8.15609 70.45 8.06609 70.22 7.75609 70.13V70H9.72609C11.7561 70 12.3561 70.67 12.3561 71.56C12.3561 72.5 11.6761 73.21 10.3761 73.36C11.6061 73.52 11.7961 74.13 12.2761 75.36C12.7561 76.56 12.9561 76.89 13.2961 76.89C13.3561 76.89 13.4061 76.89 13.4561 76.88V77C13.3061 77.05 13.0461 77.07 12.8461 77.07ZM8.97609 73.24H9.81609C10.9661 73.24 11.5061 72.64 11.5061 71.79C11.5061 70.9 10.9261 70.15 9.44609 70.15C9.29609 70.15 9.13609 70.16 8.97609 70.17V73.24ZM13.1991 77V76.87C13.4791 76.78 13.7291 76.58 14.0391 75.82L16.0091 70.94C16.0791 70.76 16.0691 70.63 15.9891 70.47L15.8991 70.26L16.6491 69.92L19.1091 75.83C19.4191 76.58 19.6591 76.78 19.8691 76.87V77H18.3191V76.87C18.6291 76.78 18.5491 76.58 18.2291 75.83L17.6191 74.36H14.7991L14.2091 75.82C13.9491 76.47 13.9891 76.8 14.3291 76.87V77H13.1991ZM14.8591 74.21H17.5591L16.1891 70.92L14.8591 74.21ZM20.8954 77.07C20.6154 77.07 20.3754 76.82 20.3754 76.53C20.3754 76.24 20.6154 76 20.8954 76C21.1754 76 21.4054 76.24 21.4054 76.53C21.4054 76.82 21.1754 77.07 20.8954 77.07ZM23.9316 77V76.87C24.2116 76.78 24.4616 76.58 24.7716 75.82L26.7416 70.94C26.8116 70.76 26.8016 70.63 26.7216 70.47L26.6316 70.26L27.3816 69.92L29.8416 75.83C30.1516 76.58 30.3916 76.78 30.6016 76.87V77H29.0516V76.87C29.3616 76.78 29.2816 76.58 28.9616 75.83L28.3516 74.36H25.5316L24.9416 75.82C24.6816 76.47 24.7216 76.8 25.0616 76.87V77H23.9316ZM25.5916 74.21H28.2916L26.9216 70.92L25.5916 74.21ZM36.2978 77.08L31.5878 70.95V75.33C31.5878 76.47 31.8278 76.75 32.2778 76.87V77H31.0278V76.87C31.3278 76.78 31.4278 76.55 31.4278 75.73V71.27C31.4278 70.45 31.3078 70.22 30.9078 70.13V70H31.8878L36.2578 75.66V71.67C36.2578 70.53 36.0178 70.25 35.5678 70.13V70H36.8278V70.13C36.5178 70.22 36.4278 70.45 36.4278 71.27V77.08H36.2978ZM41.4266 77.1C39.1966 77.1 37.7466 75.7 37.7466 73.55C37.7466 71.54 39.2466 69.93 41.3866 69.93C42.2766 69.93 43.2266 70.19 43.6166 70.45L43.6566 71.63L43.5566 71.65C43.1866 70.79 42.2666 70.11 41.0966 70.11C39.6566 70.11 38.5766 71.1 38.5566 72.94C38.5366 74.83 39.7166 76.9 41.7366 76.9C42.4866 76.9 43.1366 76.5 43.3866 76L43.3766 74.98C43.3766 74.36 43.2966 74.12 42.8666 74.01V73.89H44.1766V75.77C43.5966 76.58 42.4366 77.1 41.4266 77.1ZM45.1584 77V76.87C45.4584 76.78 45.5584 76.55 45.5584 75.73V71.27C45.5584 70.45 45.4584 70.22 45.1584 70.13V70H49.8084L49.9184 71.3L49.8084 71.33C49.4584 70.45 48.8684 70.15 47.8484 70.15H46.3784V73.18H47.6584C48.7984 73.18 49.0884 72.95 49.2084 72.5H49.3284V74.01H49.2084C49.0884 73.56 48.7984 73.33 47.6584 73.33H46.3784V76.4C46.3784 76.69 46.5384 76.85 46.8284 76.85H48.1284C49.0884 76.85 49.6984 76.58 50.0584 75.65L50.1684 75.67L50.0884 77H45.1584ZM51.0471 77V76.87C51.3471 76.78 51.4471 76.55 51.4471 75.73V71.27C51.4471 70.45 51.3471 70.22 51.0471 70.13V70H52.6671V70.13C52.3571 70.22 52.2671 70.45 52.2671 71.27V76.39C52.2671 76.68 52.4271 76.84 52.7171 76.84H53.9071C54.8671 76.84 55.3071 76.6 55.6571 75.85L55.7671 75.87L55.6971 77H51.0471ZM55.7968 77V76.87C56.0768 76.78 56.3268 76.58 56.6368 75.82L58.6068 70.94C58.6768 70.76 58.6668 70.63 58.5868 70.47L58.4968 70.26L59.2468 69.92L61.7068 75.83C62.0168 76.58 62.2568 76.78 62.4668 76.87V77H60.9168V76.87C61.2268 76.78 61.1468 76.58 60.8268 75.83L60.2168 74.36H57.3968L56.8068 75.82C56.5468 76.47 56.5868 76.8 56.9268 76.87V77H55.7968ZM57.4568 74.21H60.1568L58.7868 70.92L57.4568 74.21ZM70.0727 77.07C69.3027 77.07 69.1427 76.51 68.7027 75.47C68.1227 74.09 68.0427 73.39 66.8427 73.39H66.2027V75.73C66.2027 76.55 66.2927 76.78 66.6027 76.87V77H64.9827V76.87C65.2927 76.78 65.3827 76.55 65.3827 75.73V71.27C65.3827 70.45 65.2927 70.22 64.9827 70.13V70H66.9527C68.9827 70 69.5827 70.67 69.5827 71.56C69.5827 72.5 68.9027 73.21 67.6027 73.36C68.8327 73.52 69.0227 74.13 69.5027 75.36C69.9827 76.56 70.1827 76.89 70.5227 76.89C70.5827 76.89 70.6327 76.89 70.6827 76.88V77C70.5327 77.05 70.2727 77.07 70.0727 77.07ZM66.2027 73.24H67.0427C68.1927 73.24 68.7327 72.64 68.7327 71.79C68.7327 70.9 68.1527 70.15 66.6727 70.15C66.5227 70.15 66.3627 70.16 66.2027 70.17V73.24ZM74.1777 77.1C72.4777 77.1 70.6177 75.97 70.6177 73.49C70.6177 71.44 72.0577 69.92 74.1777 69.92C75.8677 69.92 77.7177 71.08 77.7177 73.53C77.7177 76 75.8577 77.1 74.1777 77.1ZM71.4177 72.91C71.4877 74.92 72.8077 76.85 74.5977 76.85C76.1977 76.85 76.9877 75.69 76.9377 74.19C76.8677 72.1 75.5577 70.15 73.7677 70.15C72.2477 70.15 71.3577 71.28 71.4177 72.91ZM78.7424 77V76.87C79.0424 76.78 79.1424 76.55 79.1424 75.73V71.27C79.1424 70.45 79.0424 70.22 78.7424 70.13V70H81.1324C83.8824 70 84.9624 71.75 84.9724 73.37C84.9824 75.48 83.5624 77 81.3624 77H78.7424ZM79.9624 76.12C79.9624 76.59 80.0624 76.85 80.6124 76.85H81.3424C83.0924 76.85 84.0624 75.86 84.0624 73.77C84.0624 71.77 82.8724 70.15 80.6424 70.15H79.9624V76.12ZM91.0785 77.07C90.3085 77.07 90.1485 76.51 89.7085 75.47C89.1285 74.09 89.0485 73.39 87.8485 73.39H87.2085V75.73C87.2085 76.55 87.2985 76.78 87.6085 76.87V77H85.9885V76.87C86.2985 76.78 86.3885 76.55 86.3885 75.73V71.27C86.3885 70.45 86.2985 70.22 85.9885 70.13V70H87.9585C89.9885 70 90.5885 70.67 90.5885 71.56C90.5885 72.5 89.9085 73.21 88.6085 73.36C89.8385 73.52 90.0285 74.13 90.5085 75.36C90.9885 76.56 91.1885 76.89 91.5285 76.89C91.5885 76.89 91.6385 76.89 91.6885 76.88V77C91.5385 77.05 91.2785 77.07 91.0785 77.07ZM87.2085 73.24H88.0485C89.1985 73.24 89.7385 72.64 89.7385 71.79C89.7385 70.9 89.1585 70.15 87.6785 70.15C87.5285 70.15 87.3685 70.16 87.2085 70.17V73.24ZM92.1116 77V76.87C92.4116 76.78 92.5116 76.55 92.5116 75.73V71.27C92.5116 70.45 92.4116 70.22 92.1116 70.13V70H93.7316V70.13C93.4216 70.22 93.3316 70.45 93.3316 71.27V75.73C93.3316 76.55 93.4216 76.78 93.7316 76.87V77H92.1116ZM98.4383 77.1C96.2083 77.1 94.7583 75.7 94.7583 73.55C94.7583 71.54 96.2583 69.93 98.3983 69.93C99.2883 69.93 100.238 70.19 100.628 70.45L100.668 71.63L100.568 71.65C100.198 70.79 99.2783 70.11 98.1083 70.11C96.6683 70.11 95.5883 71.1 95.5683 72.94C95.5483 74.83 96.7283 76.9 98.7483 76.9C99.4983 76.9 100.148 76.5 100.398 76L100.388 74.98C100.388 74.36 100.308 74.12 99.8783 74.01V73.89H101.188V75.77C100.608 76.58 99.4483 77.1 98.4383 77.1ZM105.27 77.1C103.84 77.1 102.44 76.43 102.44 74.42V71.27C102.44 70.45 102.35 70.22 102.04 70.13V70H103.66V70.13C103.36 70.22 103.26 70.45 103.26 71.27V74.36C103.26 76.22 104.29 76.89 105.59 76.89C106.45 76.89 107.6 76.32 107.6 74.36V71.67C107.6 70.53 107.36 70.25 106.92 70.13V70H108.16V70.13C107.86 70.22 107.76 70.45 107.76 71.27V74.33C107.76 76.34 106.66 77.1 105.27 77.1ZM108.957 77V76.87C109.257 76.78 109.357 76.55 109.357 75.73V71.27C109.357 70.45 109.257 70.22 108.957 70.13V70H113.607L113.717 71.3L113.607 71.33C113.257 70.45 112.667 70.15 111.647 70.15H110.177V73.18H111.457C112.597 73.18 112.887 72.95 113.007 72.5H113.127V74.01H113.007C112.887 73.56 112.597 73.33 111.457 73.33H110.177V76.4C110.177 76.69 110.337 76.85 110.627 76.85H111.927C112.887 76.85 113.497 76.58 113.857 75.65L113.967 75.67L113.887 77H108.957ZM117.186 77.1C116.136 77.1 115.256 76.73 114.786 76.39L114.736 75L114.846 74.98C115.236 76.03 115.996 76.92 117.386 76.92C118.186 76.92 118.876 76.4 118.876 75.59C118.876 74.59 117.646 74.13 116.806 73.79C115.626 73.32 114.876 72.9 114.876 71.84C114.876 70.67 115.846 69.93 117.316 69.93C118.226 69.93 118.876 70.18 119.266 70.39L119.306 71.55L119.206 71.58C118.836 70.71 118.136 70.09 116.996 70.09C116.186 70.09 115.496 70.56 115.496 71.41C115.496 72.35 116.526 72.73 117.376 73.08C118.486 73.52 119.526 73.96 119.526 75.09C119.526 76.34 118.366 77.1 117.186 77.1Z" fill="white"/>
<path d="M85.188 84V83.944C85.32 83.9 85.348 83.78 85.348 83.492V81.708C85.348 81.42 85.32 81.3 85.188 81.256V81.2H86.028C86.94 81.2 87.148 81.652 87.148 81.976C87.148 82.476 86.788 82.9 85.968 82.9H85.772V83.492C85.772 83.78 85.8 83.9 85.932 83.944V84H85.188ZM85.772 82.836H85.948C86.472 82.836 86.696 82.532 86.696 82.08C86.696 81.736 86.528 81.264 85.896 81.264C85.856 81.264 85.8 81.268 85.772 81.272V82.836ZM89.3784 84.04C88.9664 84.04 88.5944 83.908 88.3904 83.756L88.3744 83.156L88.4264 83.148C88.5944 83.604 88.9504 83.956 89.4824 83.956C89.7584 83.956 90.0144 83.78 90.0144 83.452C90.0144 83.06 89.4984 82.876 89.1784 82.748C88.7664 82.576 88.4224 82.44 88.4224 81.976C88.4224 81.48 88.8224 81.172 89.4504 81.172C89.7464 81.172 90.0104 81.236 90.2184 81.34L90.2344 81.86L90.1904 81.876C90.0264 81.464 89.6864 81.24 89.2984 81.24C88.9784 81.24 88.7264 81.428 88.7264 81.744C88.7264 82.1 89.1304 82.244 89.4504 82.372C89.8584 82.528 90.3424 82.708 90.3424 83.188C90.3424 83.736 89.8384 84.04 89.3784 84.04ZM91.6333 84V83.944C91.7653 83.9 91.7933 83.78 91.7933 83.492V81.708C91.7933 81.42 91.7653 81.3 91.6333 81.256V81.2H92.3773V81.256C92.2453 81.3 92.2173 81.42 92.2173 81.708V83.492C92.2173 83.78 92.2453 83.9 92.3773 83.944V84H91.6333ZM96.3424 84.756C95.9864 84.756 95.6704 84.348 95.4464 84.024C95.3664 84.036 95.2904 84.04 95.2144 84.04C94.5344 84.04 93.7824 83.592 93.7824 82.588C93.7824 81.796 94.3664 81.168 95.2144 81.168C95.8904 81.168 96.6424 81.632 96.6424 82.612C96.6424 83.436 96.1024 83.888 95.5264 84.008C95.8584 84.264 96.1504 84.432 96.4824 84.432C96.6784 84.432 96.8184 84.372 96.9104 84.276L96.9464 84.308C96.7464 84.552 96.5904 84.756 96.3424 84.756ZM94.1984 82.344C94.2544 83.144 94.7624 83.916 95.4424 83.916C96.0544 83.916 96.2744 83.456 96.2384 82.928C96.1784 82.076 95.6984 81.272 95.0064 81.272C94.4624 81.272 94.1544 81.696 94.1984 82.344ZM99.3237 84.04C98.7477 84.04 98.1557 83.772 98.1557 82.912V81.708C98.1557 81.42 98.1277 81.3 97.9957 81.256V81.2H98.7397V81.256C98.6077 81.3 98.5797 81.42 98.5797 81.708V82.944C98.5797 83.672 98.9397 83.944 99.4837 83.944C99.8197 83.944 100.256 83.696 100.256 82.92V81.948C100.256 81.46 100.16 81.32 99.9517 81.256V81.2H100.488V81.256C100.356 81.3 100.328 81.42 100.328 81.708V82.912C100.328 83.716 99.9077 84.04 99.3237 84.04ZM101.782 84V83.944C101.914 83.9 101.942 83.78 101.942 83.492V81.708C101.942 81.42 101.914 81.3 101.782 81.256V81.2H102.526V81.256C102.394 81.3 102.366 81.42 102.366 81.708V83.492C102.366 83.78 102.394 83.9 102.526 83.944V84H101.782ZM103.631 84V83.944C103.751 83.9 103.859 83.796 103.967 83.528L104.715 81.672C104.747 81.592 104.743 81.528 104.707 81.456L104.655 81.344L105.047 81.168L106.039 83.532C106.151 83.796 106.255 83.9 106.347 83.944V84H105.619V83.944C105.751 83.9 105.695 83.796 105.583 83.532L105.343 82.956H104.275L104.043 83.528C103.935 83.796 103.959 83.912 104.095 83.944V84H103.631ZM104.299 82.892H105.315L104.799 81.656L104.299 82.892ZM107.717 84V83.944C107.849 83.9 107.877 83.78 107.877 83.492V81.272H107.753C107.397 81.272 107.217 81.372 107.069 81.692L107.021 81.684L107.045 81.2H109.129L109.153 81.684L109.105 81.692C108.957 81.372 108.777 81.272 108.421 81.272H108.305V83.492C108.305 83.78 108.333 83.9 108.465 83.944V84H107.717ZM112.427 84.028C112.095 84.028 112.015 83.812 111.823 83.344C111.583 82.76 111.563 82.564 111.211 82.564H110.975V83.492C110.975 83.78 111.003 83.9 111.135 83.944V84H110.391V83.944C110.523 83.9 110.551 83.78 110.551 83.492V81.708C110.551 81.42 110.523 81.3 110.391 81.256V81.2H111.231C112.103 81.2 112.283 81.516 112.283 81.84C112.283 82.208 112.031 82.484 111.499 82.548C111.951 82.6 112.039 82.788 112.251 83.32C112.463 83.852 112.507 83.948 112.655 83.948C112.675 83.948 112.695 83.948 112.715 83.944V84C112.623 84.024 112.495 84.028 112.427 84.028ZM110.975 82.5H111.231C111.687 82.5 111.859 82.244 111.859 81.936C111.859 81.612 111.651 81.264 111.151 81.264C111.095 81.264 111.035 81.268 110.975 81.276V82.5ZM113.864 84V83.944C113.996 83.9 114.024 83.78 114.024 83.492V81.708C114.024 81.42 113.996 81.3 113.864 81.256V81.2H114.608V81.256C114.476 81.3 114.448 81.42 114.448 81.708V83.492C114.448 83.78 114.476 83.9 114.608 83.944V84H113.864ZM115.713 84V83.944C115.833 83.9 115.941 83.796 116.049 83.528L116.797 81.672C116.829 81.592 116.825 81.528 116.789 81.456L116.737 81.344L117.129 81.168L118.121 83.532C118.233 83.796 118.337 83.9 118.429 83.944V84H117.701V83.944C117.833 83.9 117.777 83.796 117.665 83.532L117.425 82.956H116.357L116.125 83.528C116.017 83.796 116.041 83.912 116.177 83.944V84H115.713ZM116.381 82.892H117.397L116.881 81.656L116.381 82.892Z" fill="white"/>
<path d="M73.6732 63.1429L71.6683 63.9974L71.9885 64.5255L73.6732 63.1429Z" fill="white"/>
<path d="M74.0563 62.1879L71.7117 63.1732L72.1337 63.8527L74.0563 62.1879Z" fill="white"/>
<mask id="mask5_4_39" style="mask-type:alpha" maskUnits="userSpaceOnUse" x="65" y="53" width="7" height="13">
<rect x="65" y="53" width="7" height="13" fill="#D9D9D9"/>
</mask>
<g mask="url(#mask5_4_39)">
<path d="M75.9688 57.5156C76.1667 57.1094 76.3021 56.9219 76.375 56.9531C76.4479 56.9844 76.4635 57.151 76.4219 57.4531C76.3906 57.7448 76.3281 58.0781 76.2344 58.4531C76.099 59.026 75.8646 59.6927 75.5312 60.4531C75.1979 61.2031 74.8281 61.8854 74.4219 62.5C73.8177 63.3542 73.0677 64 72.1719 64.4375C71.2865 64.8646 70.4792 64.9688 69.75 64.75C69.0312 64.5312 68.6146 63.849 68.5 62.7031C68.4792 61.7448 68.5625 60.6927 68.75 59.5469C68.8125 59.0677 68.8802 58.599 68.9531 58.1406C68.9531 57.974 68.9115 57.849 68.8281 57.7656C68.7448 57.6719 68.6354 57.6354 68.5 57.6562C68.4062 57.6562 68.3021 57.6562 68.1875 57.6562C67.6146 57.75 67.0312 57.7396 66.4375 57.625C65.7292 57.4167 65.3177 57.0677 65.2031 56.5781C65.0885 56.0781 65.099 55.4271 65.2344 54.625C65.3073 54.0521 65.5208 53.625 65.875 53.3438C66.2292 53.0521 66.6458 52.9323 67.125 52.9844C67.7917 53.0469 68.1146 53.3021 68.0938 53.75C68.0729 54.1979 67.9479 54.6771 67.7188 55.1875C67.5104 55.6146 67.401 55.974 67.3906 56.2656C67.3802 56.5469 67.625 56.6458 68.125 56.5625C68.2396 56.5312 68.3646 56.4948 68.5 56.4531C68.6875 56.3802 68.901 56.3177 69.1406 56.2656C69.3802 56.2031 69.6927 56.1875 70.0781 56.2188C70.5365 56.2396 70.8385 56.4531 70.9844 56.8594C71.1406 57.2552 71.2083 57.7552 71.1875 58.3594C71.1667 58.9635 71.1094 59.5781 71.0156 60.2031C70.901 60.9844 70.8438 61.6562 70.8438 62.2188C70.8438 62.7708 71.0052 63.0938 71.3281 63.1875C71.7552 63.3021 72.3906 62.9167 73.2344 62.0312C74.0885 61.1354 75 59.6302 75.9688 57.5156Z" fill="white"/>
</g>
<mask id="mask6_4_39" style="mask-type:alpha" maskUnits="userSpaceOnUse" x="4" y="80" width="34" height="15">
<rect x="4" y="80" width="34" height="15" fill="white"/>
</mask>
<g mask="url(#mask6_4_39)">
<path d="M65.4219 75.25C65.5156 75.4375 65.5729 75.6354 65.5938 75.8438C65.6354 76.1354 65.5104 76.3281 65.2188 76.4219C64.3229 76.7448 63.6458 76.5052 63.1875 75.7031C62.8646 75.1302 62.5677 74.5365 62.2969 73.9219C61.6719 72.4531 61.1146 70.9531 60.625 69.4219C60.1354 67.901 59.6823 66.375 59.2656 64.8438C58.901 63.4896 58.5469 62.1354 58.2031 60.7812C57.974 59.8229 57.7344 58.8594 57.4844 57.8906C57.3698 57.4115 57.2292 57.1146 57.0625 57C56.9062 56.8854 56.5885 56.8385 56.1094 56.8594C54.5469 56.9531 52.9896 57.0469 51.4375 57.1406C49.8021 57.2344 48.1719 57.3125 46.5469 57.375C46.1406 57.4062 45.8385 57.526 45.6406 57.7344C45.4427 57.9323 45.2969 58.2135 45.2031 58.5781C44.2031 62.3594 43.026 66.099 41.6719 69.7969C40.7552 72.224 39.7448 74.6094 38.6406 76.9531C37.5469 79.3073 36.2865 81.5729 34.8594 83.75C33.5781 85.6979 32.0573 87.4375 30.2969 88.9688C28.5469 90.5104 26.5625 91.5417 24.3438 92.0625C21.2917 92.7708 18.3906 92.3958 15.6406 90.9375C13.9948 90.0208 12.5417 88.875 11.2812 87.5C7.0625 82.9167 4.11979 77.6198 2.45312 71.6094C2.15104 70.5156 2 69.3958 2 68.25V68.1719C2 67.9427 2.01042 67.7031 2.03125 67.4531C2.19792 64.7969 3.44792 62.8125 5.78125 61.5C6.67708 61.0208 7.59896 60.6406 8.54688 60.3594C9.49479 60.0677 10.4635 59.8542 11.4531 59.7188C14.4115 59.2604 17.3802 58.8594 20.3594 58.5156C25.099 57.9844 29.8542 57.4896 34.625 57.0312C36.2917 56.875 37.9531 56.7396 39.6094 56.625C40.4115 56.5833 41.2031 56.526 41.9844 56.4531C42.526 56.4323 42.8906 56.3594 43.0781 56.2344C43.2656 56.1094 43.4167 55.7917 43.5312 55.2812C43.8229 54.2083 44.1094 53.1198 44.3906 52.0156C46.3073 43.5885 47.8281 35.0885 48.9531 26.5156C49.7135 21.1719 50.3125 15.8177 50.75 10.4531C50.8646 8.76562 50.9427 7.07292 50.9844 5.375C51.0052 4.61458 51.0417 3.85938 51.0938 3.10938C51.0938 2.99479 51.0938 2.88021 51.0938 2.76562C51.0938 2.53646 51.1042 2.31771 51.125 2.10938C51.1458 1.67188 51.25 1.36979 51.4375 1.20312C51.6354 1.02604 51.9531 0.9375 52.3906 0.9375C52.8281 0.916667 53.1406 0.994792 53.3281 1.17188C53.526 1.33854 53.625 1.65104 53.625 2.10938C53.625 3.64062 53.625 5.21875 53.625 6.84375C53.625 7.53125 53.625 8.23438 53.625 8.95312C53.7188 13.3281 53.9635 17.8177 54.3594 22.4219C54.7865 27.5781 55.3594 32.724 56.0781 37.8594C56.8073 43.1927 57.7656 48.4844 58.9531 53.7344C59.0052 53.9844 59.0625 54.224 59.125 54.4531C59.1771 54.599 59.224 54.75 59.2656 54.9062C59.401 55.3438 59.6979 55.5365 60.1562 55.4844C61.1458 55.4635 62.1458 55.4427 63.1562 55.4219C63.6354 55.3802 64.0833 55.474 64.5 55.7031C64.6562 55.8177 64.7344 55.9896 64.7344 56.2188C64.7135 56.3333 64.6615 56.4219 64.5781 56.4844C64.4948 56.5365 64.4115 56.5625 64.3281 56.5625C63.8385 56.5833 63.3438 56.5938 62.8438 56.5938C62.6146 56.6146 62.3854 56.625 62.1562 56.625C62.0208 56.625 61.8958 56.625 61.7812 56.625C61.3646 56.625 60.9635 56.6354 60.5781 56.6562C59.9844 56.7083 59.7552 57.0312 59.8906 57.625C59.9844 58.0104 60.0885 58.401 60.2031 58.7969C60.5469 60.349 60.9323 61.8802 61.3594 63.3906C61.9115 65.4115 62.5052 67.4167 63.1406 69.4062C63.7865 71.4062 64.5469 73.3542 65.4219 75.25ZM42.5625 58.8281C42.6979 58.3698 42.7135 58.0677 42.6094 57.9219C42.5052 57.7656 42.224 57.7135 41.7656 57.7656C39.849 57.901 37.9375 58.0729 36.0312 58.2812C35.6667 58.3021 35.3021 58.3333 34.9375 58.375C30.6667 58.7917 26.401 59.2396 22.1406 59.7188C18.9844 60.0833 15.8229 60.4948 12.6562 60.9531C11.2083 61.1406 9.79688 61.5208 8.42188 62.0938C5.72396 63.2188 4.39583 65.2448 4.4375 68.1719C4.45833 69.1615 4.57292 70.1458 4.78125 71.125C5.08333 72.3646 5.46875 73.5677 5.9375 74.7344C6.40625 75.9115 6.92708 77.0573 7.5 78.1719C9.01042 81.3177 10.9479 84.1615 13.3125 86.7031C14.5521 88.0573 15.9583 89.1667 17.5312 90.0312C20.2188 91.4375 22.8906 91.4167 25.5469 89.9688C27.151 89.125 28.5625 88.026 29.7812 86.6719C31.6146 84.6302 33.1719 82.4062 34.4531 80C37.1302 74.9375 39.3073 69.6562 40.9844 64.1562C41.5365 62.3854 42.0625 60.6094 42.5625 58.8281ZM56.6562 55.4844C56.6771 55.4635 56.6875 55.4427 56.6875 55.4219C56.7083 55.401 56.724 55.3802 56.7344 55.3594C56.7552 55.3281 56.75 55.3125 56.7188 55.3125C54.6875 45.6458 53.1979 35.8854 52.25 26.0312C52.2083 25.7083 52.151 25.3854 52.0781 25.0625C52.0573 25 52.0156 24.9219 51.9531 24.8281C51.901 24.7865 51.8542 24.7188 51.8125 24.625C51.6979 25.4479 51.5729 26.2708 51.4375 27.0938C51.1771 28.9271 50.901 30.75 50.6094 32.5625C50.2135 35.1979 49.776 37.8229 49.2969 40.4375C49.026 41.9062 48.7396 43.3698 48.4375 44.8281C48.2083 45.9531 47.9896 47.0885 47.7812 48.2344C47.5521 49.3594 47.2917 50.474 47 51.5781C46.6354 53.0156 46.3229 54.4688 46.0625 55.9375C46.6667 56.0104 47.6667 56.0312 49.0625 56C50.4583 55.9583 51.8802 55.8906 53.3281 55.7969C54.7865 55.7031 55.8958 55.599 56.6562 55.4844Z" fill="white"/>
</g>
<mask id="mask7_4_39" style="mask-type:alpha" maskUnits="userSpaceOnUse" x="0" y="0" width="65" height="66">
<rect width="65" height="66" fill="white"/>
</mask>
<g mask="url(#mask7_4_39)">
<path d="M65.4219 75.25C65.5156 75.4375 65.5729 75.6354 65.5938 75.8438C65.6354 76.1354 65.5104 76.3281 65.2188 76.4219C64.3229 76.7448 63.6458 76.5052 63.1875 75.7031C62.8646 75.1302 62.5677 74.5365 62.2969 73.9219C61.6719 72.4531 61.1146 70.9531 60.625 69.4219C60.1354 67.901 59.6823 66.375 59.2656 64.8438C58.901 63.4896 58.5469 62.1354 58.2031 60.7812C57.974 59.8229 57.7344 58.8594 57.4844 57.8906C57.3698 57.4115 57.2292 57.1146 57.0625 57C56.9062 56.8854 56.5885 56.8385 56.1094 56.8594C54.5469 56.9531 52.9896 57.0469 51.4375 57.1406C49.8021 57.2344 48.1719 57.3125 46.5469 57.375C46.1406 57.4062 45.8385 57.526 45.6406 57.7344C45.4427 57.9323 45.2969 58.2135 45.2031 58.5781C44.2031 62.3594 43.026 66.099 41.6719 69.7969C40.7552 72.224 39.7448 74.6094 38.6406 76.9531C37.5469 79.3073 36.2865 81.5729 34.8594 83.75C33.5781 85.6979 32.0573 87.4375 30.2969 88.9688C28.5469 90.5104 26.5625 91.5417 24.3438 92.0625C21.2917 92.7708 18.3906 92.3958 15.6406 90.9375C13.9948 90.0208 12.5417 88.875 11.2812 87.5C7.0625 82.9167 4.11979 77.6198 2.45312 71.6094C2.15104 70.5156 2 69.3958 2 68.25V68.1719C2 67.9427 2.01042 67.7031 2.03125 67.4531C2.19792 64.7969 3.44792 62.8125 5.78125 61.5C6.67708 61.0208 7.59896 60.6406 8.54688 60.3594C9.49479 60.0677 10.4635 59.8542 11.4531 59.7188C14.4115 59.2604 17.3802 58.8594 20.3594 58.5156C25.099 57.9844 29.8542 57.4896 34.625 57.0312C36.2917 56.875 37.9531 56.7396 39.6094 56.625C40.4115 56.5833 41.2031 56.526 41.9844 56.4531C42.526 56.4323 42.8906 56.3594 43.0781 56.2344C43.2656 56.1094 43.4167 55.7917 43.5312 55.2812C43.8229 54.2083 44.1094 53.1198 44.3906 52.0156C46.3073 43.5885 47.8281 35.0885 48.9531 26.5156C49.7135 21.1719 50.3125 15.8177 50.75 10.4531C50.8646 8.76562 50.9427 7.07292 50.9844 5.375C51.0052 4.61458 51.0417 3.85938 51.0938 3.10938C51.0938 2.99479 51.0938 2.88021 51.0938 2.76562C51.0938 2.53646 51.1042 2.31771 51.125 2.10938C51.1458 1.67188 51.25 1.36979 51.4375 1.20312C51.6354 1.02604 51.9531 0.9375 52.3906 0.9375C52.8281 0.916667 53.1406 0.994792 53.3281 1.17188C53.526 1.33854 53.625 1.65104 53.625 2.10938C53.625 3.64062 53.625 5.21875 53.625 6.84375C53.625 7.53125 53.625 8.23438 53.625 8.95312C53.7188 13.3281 53.9635 17.8177 54.3594 22.4219C54.7865 27.5781 55.3594 32.724 56.0781 37.8594C56.8073 43.1927 57.7656 48.4844 58.9531 53.7344C59.0052 53.9844 59.0625 54.224 59.125 54.4531C59.1771 54.599 59.224 54.75 59.2656 54.9062C59.401 55.3438 59.6979 55.5365 60.1562 55.4844C61.1458 55.4635 62.1458 55.4427 63.1562 55.4219C63.6354 55.3802 64.0833 55.474 64.5 55.7031C64.6562 55.8177 64.7344 55.9896 64.7344 56.2188C64.7135 56.3333 64.6615 56.4219 64.5781 56.4844C64.4948 56.5365 64.4115 56.5625 64.3281 56.5625C63.8385 56.5833 63.3438 56.5938 62.8438 56.5938C62.6146 56.6146 62.3854 56.625 62.1562 56.625C62.0208 56.625 61.8958 56.625 61.7812 56.625C61.3646 56.625 60.9635 56.6354 60.5781 56.6562C59.9844 56.7083 59.7552 57.0312 59.8906 57.625C59.9844 58.0104 60.0885 58.401 60.2031 58.7969C60.5469 60.349 60.9323 61.8802 61.3594 63.3906C61.9115 65.4115 62.5052 67.4167 63.1406 69.4062C63.7865 71.4062 64.5469 73.3542 65.4219 75.25ZM42.5625 58.8281C42.6979 58.3698 42.7135 58.0677 42.6094 57.9219C42.5052 57.7656 42.224 57.7135 41.7656 57.7656C39.849 57.901 37.9375 58.0729 36.0312 58.2812C35.6667 58.3021 35.3021 58.3333 34.9375 58.375C30.6667 58.7917 26.401 59.2396 22.1406 59.7188C18.9844 60.0833 15.8229 60.4948 12.6562 60.9531C11.2083 61.1406 9.79688 61.5208 8.42188 62.0938C5.72396 63.2188 4.39583 65.2448 4.4375 68.1719C4.45833 69.1615 4.57292 70.1458 4.78125 71.125C5.08333 72.3646 5.46875 73.5677 5.9375 74.7344C6.40625 75.9115 6.92708 77.0573 7.5 78.1719C9.01042 81.3177 10.9479 84.1615 13.3125 86.7031C14.5521 88.0573 15.9583 89.1667 17.5312 90.0312C20.2188 91.4375 22.8906 91.4167 25.5469 89.9688C27.151 89.125 28.5625 88.026 29.7812 86.6719C31.6146 84.6302 33.1719 82.4062 34.4531 80C37.1302 74.9375 39.3073 69.6562 40.9844 64.1562C41.5365 62.3854 42.0625 60.6094 42.5625 58.8281ZM56.6562 55.4844C56.6771 55.4635 56.6875 55.4427 56.6875 55.4219C56.7083 55.401 56.724 55.3802 56.7344 55.3594C56.7552 55.3281 56.75 55.3125 56.7188 55.3125C54.6875 45.6458 53.1979 35.8854 52.25 26.0312C52.2083 25.7083 52.151 25.3854 52.0781 25.0625C52.0573 25 52.0156 24.9219 51.9531 24.8281C51.901 24.7865 51.8542 24.7188 51.8125 24.625C51.6979 25.4479 51.5729 26.2708 51.4375 27.0938C51.1771 28.9271 50.901 30.75 50.6094 32.5625C50.2135 35.1979 49.776 37.8229 49.2969 40.4375C49.026 41.9062 48.7396 43.3698 48.4375 44.8281C48.2083 45.9531 47.9896 47.0885 47.7812 48.2344C47.5521 49.3594 47.2917 50.474 47 51.5781C46.6354 53.0156 46.3229 54.4688 46.0625 55.9375C46.6667 56.0104 47.6667 56.0312 49.0625 56C50.4583 55.9583 51.8802 55.8906 53.3281 55.7969C54.7865 55.7031 55.8958 55.599 56.6562 55.4844Z" fill="white"/>
</g>
</svg>
