<svg width="300" height="90" viewBox="0 0 120 31" fill="none" xmlns="http://www.w3.org/2000/svg">
<mask id="mask0_4_144" style="mask-type:luminance" maskUnits="userSpaceOnUse" x="83" y="1" width="18" height="18">
<path d="M86.1689 3.86594L100.088 1.59696L97.6763 16.1527L83.7572 18.4217L86.1689 3.86594Z" fill="white"/>
</mask>
<g mask="url(#mask0_4_144)">
<mask id="mask1_4_144" style="mask-type:luminance" maskUnits="userSpaceOnUse" x="83" y="1" width="17" height="18">
<path d="M99.4604 14.4639L84.7508 18.6501L83.6494 5.62003L98.3604 1.43367L99.4604 14.4639Z" fill="white"/>
</mask>
<g mask="url(#mask1_4_144)">
<mask id="mask2_4_144" style="mask-type:luminance" maskUnits="userSpaceOnUse" x="83" y="2" width="17" height="16">
<path d="M97.4818 2.59723L83.6492 5.65642L85.6302 17.4914L99.4628 14.4322L97.4818 2.59723Z" fill="white"/>
</mask>
<g mask="url(#mask2_4_144)">
<mask id="mask3_4_144" style="mask-type:luminance" maskUnits="userSpaceOnUse" x="83" y="3" width="17" height="14">
<path d="M96.827 3.25572L83.8691 4.91853L86.4039 16.7966L99.3618 15.1338L96.827 3.25572Z" fill="white"/>
</mask>
<g mask="url(#mask3_4_144)">
<mask id="mask4_4_144" style="mask-type:luminance" maskUnits="userSpaceOnUse" x="84" y="4" width="16" height="12">
<path d="M96.4701 4.36567L84.0844 4.74775L86.7672 15.6812L99.153 15.2991L96.4701 4.36567Z" fill="white"/>
</mask>
<g mask="url(#mask4_4_144)">
<path d="M93.8626 8.81786C93.8953 8.81865 93.9256 8.82 93.9559 8.82219C94.0306 8.82667 94.1064 8.83468 94.1822 8.84439C94.1938 8.84588 94.2043 8.84638 94.216 8.84787C94.3034 8.85991 94.3909 8.87534 94.4772 8.89485C94.567 8.91396 94.6568 8.93814 94.7431 8.96442C94.7618 8.97019 94.7793 8.97581 94.7968 8.98143C94.8003 8.98273 94.8026 8.98387 94.8061 8.98517C94.8703 9.00606 94.9309 9.02567 94.9916 9.03343C95.1222 9.04931 95.2061 8.98563 95.2468 8.94264C95.2573 8.93129 95.2655 8.9205 95.2701 8.91348C95.3248 8.83761 95.3434 8.73595 95.3258 8.62037C95.3047 8.48319 95.2451 8.3487 95.1785 8.20739C95.1738 8.19749 95.1703 8.18858 95.1656 8.17868C95.1317 8.10753 95.0978 8.03384 95.0686 7.9599L95.0581 7.98393L95.057 7.97702C95.043 8.0006 95.029 8.02419 95.0127 8.04747C94.944 8.14947 94.8532 8.23256 94.7401 8.29589C94.662 8.34003 94.5746 8.3745 94.4872 8.40644C94.4464 8.42152 94.4056 8.43575 94.3648 8.44913L94.3135 8.4654C94.2028 8.50197 94.0874 8.53963 93.986 8.58669C93.9604 8.59863 93.9382 8.61272 93.9138 8.62565C93.8345 8.66879 93.7599 8.71675 93.6947 8.77436C93.6679 8.79715 93.6423 8.82178 93.6178 8.84825C93.6912 8.81959 93.7787 8.81557 93.8626 8.81786ZM86.5162 14.0072C86.5115 14.0024 86.5069 13.9984 86.5034 13.9929C86.4999 13.9865 86.4999 13.9806 86.4987 13.9737C86.4987 13.972 86.4975 13.9702 86.4975 13.9685C86.4963 13.9531 86.5045 13.9381 86.522 13.9268C86.5779 13.8925 86.6338 13.8574 86.6886 13.8221C86.8983 13.6908 87.1046 13.5531 87.2863 13.3996C87.3877 13.3137 87.4832 13.2227 87.5647 13.124C87.602 13.0798 87.6323 13.0337 87.6614 12.9867C87.6637 12.9828 87.6672 12.9798 87.6695 12.9759C87.6998 12.9248 87.7277 12.8726 87.7568 12.8188C87.7789 12.7785 87.801 12.7382 87.8231 12.6979C87.8429 12.6641 87.8639 12.6304 87.886 12.5968C87.9733 12.4668 88.1096 12.3472 88.2938 12.2439C88.4767 12.1396 88.683 12.0595 88.8835 11.9811C89.0513 11.9155 89.225 11.8473 89.3823 11.7668C89.4219 11.7456 89.4616 11.7228 89.5 11.6989C89.5839 11.6454 89.6631 11.5845 89.7424 11.5118C89.7773 11.4799 89.8123 11.4454 89.8484 11.4086C89.9846 11.2645 90.1396 11.1161 90.3797 11.0225C90.6198 10.9306 90.8926 10.9199 91.1561 10.9096L91.2739 10.9052C91.3438 10.9015 91.4091 10.8963 91.4674 10.8886C91.5712 10.8443 91.6749 10.801 91.7798 10.7586C91.8043 10.7482 91.8276 10.7393 91.8486 10.7302C91.8707 10.7203 91.8917 10.7095 91.9115 10.6985C91.9161 10.6931 91.9196 10.686 91.9231 10.6797C91.9289 10.6711 91.9359 10.6619 91.9406 10.6515C91.9429 10.6458 91.9487 10.6415 91.9534 10.637C91.9604 10.6286 91.9709 10.6223 91.9825 10.6179C91.9884 10.6161 91.9919 10.6132 91.9965 10.6121C92.0012 10.6118 92.0047 10.6115 92.0082 10.6102C92.0326 10.5651 92.0407 10.507 92.0453 10.4475C92.0173 10.4312 91.9905 10.4126 91.9683 10.3979L91.9601 10.3926L91.9461 10.3824C91.9333 10.374 91.9181 10.3661 91.9041 10.3584C91.8855 10.3484 91.8656 10.3365 91.8458 10.3239C91.8376 10.3186 91.8295 10.3133 91.8213 10.3072C91.8026 10.2921 91.7863 10.2765 91.7688 10.2607C91.7454 10.2391 91.7256 10.2197 91.6999 10.2045C91.6696 10.1863 91.6381 10.1712 91.6054 10.1569C91.5448 10.1305 91.4795 10.1103 91.4153 10.0928C91.3967 10.0879 91.378 10.083 91.3593 10.078C91.2929 10.0619 91.2264 10.0466 91.1599 10.0305C91.0771 10.0115 90.9943 9.99241 90.9115 9.97081C90.8602 9.95747 90.8053 9.94284 90.7494 9.92722C90.6479 9.899 90.5394 9.86651 90.4158 9.82869C90.3645 9.81366 90.312 9.79764 90.2595 9.78246C90.2222 9.77092 90.1837 9.75922 90.1452 9.74753C89.9702 9.69468 89.7941 9.63661 89.6285 9.56212C89.5818 9.54177 89.5351 9.52057 89.4908 9.49629C89.415 9.45614 89.3426 9.40966 89.2715 9.36418C89.2248 9.33453 89.1793 9.30502 89.1326 9.2779C89.1104 9.26407 89.0871 9.25093 89.0638 9.23864C88.9949 9.20023 88.9238 9.16828 88.8503 9.14788C88.8013 9.13315 88.75 9.12404 88.6964 9.12056C88.5751 9.11349 88.4807 9.16314 88.3805 9.21543C88.3723 9.21946 88.3642 9.22349 88.3572 9.22767C88.2604 9.27787 88.1521 9.32827 88.011 9.32543C87.9923 9.32558 87.9725 9.32389 87.9515 9.3212C87.8944 9.31389 87.8396 9.3204 87.7812 9.3104C87.7556 9.30627 87.7299 9.30045 87.7101 9.28776C87.6891 9.27492 87.6751 9.25368 87.6844 9.23711C87.6914 9.22193 87.7159 9.21661 87.7392 9.2179C87.7625 9.2192 87.7858 9.22557 87.8091 9.23024C87.8943 9.24537 87.9456 9.21811 88.0132 9.19885C88.0878 9.17796 88.1554 9.16294 88.2206 9.129C88.2358 9.12164 88.2509 9.11343 88.2661 9.10522C88.2743 9.10119 88.2836 9.09731 88.2917 9.09244C88.3453 9.06462 88.4025 9.03811 88.4654 9.01825C88.5097 9.00532 88.5552 8.99338 88.6076 8.98995C88.7067 8.98234 88.8012 8.99697 88.8898 9.02185C88.9202 9.03081 88.9493 9.04046 88.9773 9.05166C88.9598 9.02489 88.9458 8.99772 88.9318 8.9714C88.9224 8.95498 88.9119 8.93926 88.9037 8.92299C88.8698 8.85353 88.8488 8.78317 88.8301 8.72157C88.8184 8.68201 88.8043 8.64047 88.7798 8.60604C88.7716 8.59399 88.7623 8.58265 88.7506 8.5727C88.7179 8.54314 88.6678 8.52234 88.6141 8.50025C88.5896 8.49035 88.5663 8.4806 88.5441 8.47015C88.4835 8.44208 88.4298 8.40307 88.3808 8.35958C88.3679 8.34694 88.3528 8.33739 88.3411 8.32406C88.3224 8.30475 88.3061 8.28574 88.2921 8.26619C88.2465 8.20877 88.2127 8.14861 88.1788 8.09015C88.1659 8.06736 88.1519 8.04442 88.1379 8.02064C88.1286 8.00676 88.1216 7.99233 88.1122 7.97929C88.0538 7.89062 87.8682 7.68249 87.7097 7.70955C87.6887 7.71363 87.67 7.72224 87.6491 7.72716C87.6292 7.73224 87.6024 7.73219 87.5826 7.72119C87.5639 7.71034 87.5546 7.69138 87.5581 7.67576C87.5615 7.66014 87.5743 7.6474 87.5907 7.63849C87.6314 7.61327 87.6921 7.60665 87.7492 7.61989C87.839 7.64069 87.9067 7.64343 87.9918 7.69324C88.0782 7.7432 88.1459 7.81107 88.1996 7.87968C88.2007 7.88152 88.2031 7.88267 88.2042 7.88535C88.2486 7.94262 88.2836 8.00293 88.3163 8.0604C88.3374 8.09777 88.3596 8.13359 88.3817 8.16772C88.3946 8.18713 88.4074 8.20653 88.4215 8.22524C88.4553 8.26764 88.4903 8.30003 88.5277 8.32764C88.5393 8.3359 88.5498 8.34655 88.5627 8.35327C88.593 8.37153 88.6292 8.38631 88.6665 8.40208C88.6782 8.40696 88.6898 8.41184 88.7003 8.41656C88.733 8.43005 88.7656 8.44522 88.7971 8.46364C88.8076 8.47005 88.8182 8.47816 88.8287 8.48543C88.852 8.5028 88.8742 8.5217 88.8928 8.54355C88.9115 8.56539 88.9267 8.59101 88.9396 8.61719C88.9454 8.62893 88.9524 8.63998 88.9571 8.65241C88.9594 8.65779 88.9606 8.66386 88.9629 8.67008C88.9723 8.69665 88.9816 8.72406 88.9898 8.75133C88.998 8.78198 89.0074 8.81193 89.0191 8.84219C89.067 8.96165 89.1464 9.08092 89.2491 9.1871C89.2701 9.19909 89.29 9.21178 89.3098 9.22447C89.3343 9.23945 89.3588 9.25442 89.3833 9.2694L89.451 9.31105C89.6656 9.44341 89.9071 9.52591 90.1614 9.60498C90.1975 9.61638 90.2325 9.62762 90.2698 9.63917L90.313 9.65315L90.3596 9.66673C90.397 9.67912 90.4355 9.68997 90.474 9.70167C90.6629 9.758 90.8612 9.81298 91.0746 9.86737C91.1609 9.88857 91.2484 9.90992 91.3394 9.93171C91.3557 9.9355 91.3732 9.94027 91.3895 9.94406C91.5166 9.97555 91.6461 10.0133 91.7616 10.0746C91.7908 10.0902 91.8164 10.1078 91.8409 10.1253C91.8549 10.1356 91.8701 10.146 91.883 10.1561C91.8876 10.1592 91.8923 10.1624 91.897 10.1663C91.9226 10.1857 91.9483 10.2042 91.9763 10.2188C91.981 10.2219 91.9856 10.225 91.9903 10.2282C91.995 10.2313 91.9996 10.2344 92.0043 10.2376C92.009 10.2416 92.0125 10.2437 92.0183 10.2478C92.0265 10.254 92.037 10.2587 92.0475 10.2634C92.0545 10.2668 92.0591 10.2708 92.0661 10.2734C92.0789 10.2235 92.1068 10.1628 92.1779 10.1287C92.2001 10.118 92.2245 10.1102 92.2549 10.1056C92.3084 10.0609 92.3947 10.0432 92.495 10.0585C92.5486 10.0662 92.6023 10.0833 92.6513 10.1056C92.7108 10.1327 92.7633 10.1673 92.803 10.2088C92.8111 10.2047 92.8181 10.1997 92.8263 10.1948C92.8391 10.1872 92.8519 10.1803 92.8647 10.1718C92.9067 10.1434 92.9323 10.1086 92.9474 10.0572C92.9648 9.99943 92.9788 9.94117 92.9927 9.88291C92.9939 9.8746 92.9962 9.86644 92.9985 9.85912C93.0078 9.81887 93.0171 9.77862 93.0275 9.73851C93.0368 9.69995 93.0473 9.66408 93.0566 9.62975C93.0694 9.58318 93.0821 9.53914 93.0949 9.49849C93.1031 9.47247 93.1112 9.4473 93.1193 9.42297C93.1333 9.37908 93.1496 9.33888 93.1659 9.29868C93.1717 9.2842 93.1763 9.26703 93.1833 9.25355C93.1868 9.24385 93.1914 9.23514 93.1961 9.22559C93.2147 9.18314 93.2333 9.14155 93.2531 9.10264C93.2741 9.06304 93.2962 9.02612 93.3195 8.99019C93.3229 8.98303 93.3276 8.97517 93.3323 8.96815C93.359 8.92591 93.3881 8.8865 93.4196 8.84824C93.5663 8.66913 93.7632 8.53111 94.0045 8.43852C94.0779 8.41071 94.1537 8.38574 94.2295 8.36076C94.4241 8.29773 94.6071 8.23743 94.7411 8.12941C94.7726 8.10299 94.8017 8.07458 94.8262 8.04473C94.9042 7.95323 94.9542 7.84546 95.0007 7.73386C94.9937 7.69913 94.9878 7.6637 94.9831 7.62927C94.9796 7.60852 94.9749 7.58763 94.9714 7.56603C94.955 7.45736 94.9362 7.33486 94.8778 7.22082C94.8357 7.14017 94.768 7.06722 94.6957 6.98945L94.6443 6.93298C94.5754 6.85819 94.5089 6.76933 94.4878 6.67359L94.4575 6.65195L94.4633 6.62225C94.483 6.52497 94.4432 6.41332 94.358 6.32376C94.33 6.2948 94.2985 6.26877 94.267 6.24275C94.2471 6.22583 94.2261 6.20877 94.2063 6.191C94.1398 6.13174 94.1001 6.07591 94.0802 6.01417L94.0732 5.99297C94.0673 5.97361 94.0615 5.95341 94.051 5.93431C94.0404 5.91689 94.0264 5.89987 94.0066 5.88211C93.9669 5.84574 93.9121 5.81419 93.8642 5.78608L93.8491 5.77737C93.7954 5.74597 93.7406 5.71358 93.6904 5.67502C93.6402 5.63561 93.5947 5.58918 93.5468 5.52893C93.5211 5.49689 93.4966 5.4633 93.4733 5.42986C93.4242 5.36269 93.3787 5.29935 93.3168 5.24322C93.2375 5.17132 93.1266 5.11485 92.9844 5.07379C92.8642 5.03812 92.7359 5.01662 92.6112 4.99557L92.5587 4.98716C92.3791 4.95655 92.231 4.92321 92.0922 4.88176C91.7761 4.78716 91.4716 4.64669 91.2126 4.47652C91.1321 4.42308 91.0632 4.3466 90.9932 4.2852C90.9733 4.26828 90.9535 4.24544 90.9675 4.23032C90.9768 4.21882 91.0001 4.21927 91.0188 4.22589C91.0374 4.23335 91.0514 4.2453 91.0666 4.25654C91.1961 4.36024 91.3793 4.45304 91.5333 4.53449C91.6955 4.62038 91.8681 4.69323 92.0466 4.75159C92.1912 4.79887 92.3463 4.83649 92.5072 4.86555L92.6145 4.88352C92.723 4.90163 92.8349 4.92104 92.9469 4.94891C93.1195 4.9913 93.2548 5.04922 93.3599 5.12441C93.4707 5.20372 93.5396 5.29881 93.6062 5.39106L93.6318 5.42479C93.6715 5.47893 93.7066 5.52316 93.7486 5.56406C93.7848 5.5983 93.8303 5.63203 93.8921 5.6687L93.9329 5.69254C94.0344 5.75205 94.1499 5.81927 94.2002 5.92043C94.2107 5.94292 94.2177 5.96496 94.2247 5.987C94.2283 5.99845 94.2318 6.00905 94.2353 6.01964C94.2435 6.04183 94.2563 6.06293 94.275 6.08393C94.3018 6.11528 94.3368 6.14429 94.3753 6.17543C94.3905 6.18837 94.4069 6.20146 94.422 6.21524C94.4862 6.27082 94.5352 6.33207 94.5691 6.39476C94.5831 6.37795 94.5959 6.36183 94.6099 6.34586L94.6402 6.31252C94.7054 6.23883 94.7683 6.16908 94.7974 6.08484C94.802 6.06852 94.8055 6.05036 94.809 6.0322C94.8113 6.02235 94.8148 6.01349 94.8159 6.00349L94.8042 5.97747L94.8194 5.96588C94.8205 5.93388 94.8158 5.90114 94.8123 5.86771C94.8099 5.85218 94.8123 5.83641 94.8087 5.81989C94.8029 5.79123 94.7935 5.76297 94.7853 5.73486C94.7795 5.71381 94.7748 5.69291 94.7678 5.67256C94.7608 5.65306 94.7514 5.6341 94.7444 5.61544C94.7128 5.53867 94.6766 5.46468 94.6416 5.3993C94.5692 5.26655 94.5212 5.14454 94.4266 5.01488C94.4138 4.99632 94.3986 4.97577 94.3963 4.95602C94.3939 4.94472 94.3997 4.93193 94.4137 4.93288C94.4219 4.93308 94.4301 4.9392 94.4371 4.94432C94.5829 5.05688 94.6553 5.15579 94.7348 5.29198C94.7733 5.35781 94.8072 5.42388 94.8399 5.49066C94.8563 5.52489 94.8749 5.55773 94.889 5.59166C94.8959 5.56888 94.9052 5.54554 94.9204 5.52295C94.9297 5.50892 94.9448 5.49648 94.9577 5.4829C94.9658 5.47549 94.9705 5.46678 94.9798 5.45951C94.9833 5.45658 94.9879 5.45464 94.9914 5.4517C95.0136 5.43424 95.0392 5.41722 95.0707 5.40011C95.0928 5.38772 95.1173 5.37648 95.1418 5.36439C95.1546 5.35842 95.1674 5.35245 95.1802 5.34648C95.2024 5.33578 95.2257 5.32523 95.2478 5.31369C95.2711 5.30229 95.2921 5.28976 95.3142 5.27652C95.3177 5.27359 95.3224 5.27165 95.3294 5.26747C95.3539 5.25199 95.376 5.23622 95.3981 5.21876C95.4144 5.20562 95.4296 5.19149 95.4447 5.17736C95.5111 5.11313 95.5647 5.03795 95.5996 4.957C95.6415 4.85833 95.6553 4.75016 95.6412 4.64349C95.6401 4.63573 95.6377 4.62866 95.6366 4.6209C95.6354 4.61483 95.6354 4.60975 95.6342 4.60368C95.6307 4.58463 95.6272 4.56557 95.6248 4.54835C95.6668 4.55119 95.7146 4.54801 95.7508 4.57294C95.8616 4.65056 95.7896 4.88491 95.7628 4.96437C95.7524 4.99263 95.7419 5.02089 95.7279 5.04701C95.7 5.10348 95.6639 5.15637 95.6208 5.20583C95.6022 5.22628 95.5836 5.24673 95.5614 5.26673C95.5521 5.27484 95.5416 5.2828 95.5323 5.29091C95.4915 5.32459 95.4496 5.35559 95.403 5.3826C95.3622 5.40529 95.3191 5.42599 95.2759 5.44584L95.2538 5.45654L95.2212 5.47181C95.2013 5.48196 95.1804 5.49281 95.1617 5.50395C95.1559 5.50659 95.1501 5.50923 95.1454 5.51286C95.1373 5.51689 95.1326 5.52306 95.1256 5.52808C95.1093 5.53868 95.093 5.54928 95.0813 5.56216C95.0592 5.58555 95.0464 5.61436 95.0394 5.6473C95.0371 5.65968 95.0325 5.67177 95.0313 5.68601C95.0313 5.70038 95.0325 5.71576 95.0337 5.73029C95.0337 5.74467 95.0337 5.75905 95.0349 5.77358C95.0349 5.78796 95.0349 5.80149 95.0361 5.81602C95.0361 5.82701 95.0373 5.83731 95.0373 5.84831C95.0373 5.85338 95.0373 5.85846 95.0373 5.86269C95.0362 5.89722 95.0316 5.93553 95.0129 5.97205C95.006 5.98638 94.9967 5.99957 94.985 6.01245C94.9803 6.01862 94.9745 6.0238 94.9687 6.02897C94.9594 6.10052 94.9327 6.1656 94.8966 6.2261C94.8896 6.23789 94.885 6.25083 94.8768 6.26163C94.8477 6.30188 94.8139 6.33984 94.7802 6.37696C94.7382 6.42233 94.6998 6.46477 94.6707 6.51264C94.6602 6.52906 94.6544 6.54523 94.6486 6.56224C94.6288 6.61722 94.6324 6.67434 94.6593 6.73276C94.6674 6.75072 94.6756 6.76784 94.6873 6.7854C94.7247 6.83924 94.7725 6.89019 94.8227 6.94313C94.8612 6.98359 94.8997 7.02404 94.9336 7.06643C95.0445 7.20326 95.0843 7.34621 95.1101 7.48653C95.131 7.44523 95.1532 7.40831 95.1753 7.37478C95.2009 7.33577 95.2288 7.30044 95.258 7.26865C95.3185 7.20367 95.3942 7.14063 95.484 7.08108C95.4886 7.07914 95.4933 7.07635 95.498 7.07356C95.5807 7.02073 95.7031 6.98058 95.7531 6.91087C95.7823 6.87146 95.7974 6.84634 95.8475 6.81723C95.8918 6.79161 95.9431 6.76942 95.9652 6.72743C95.9803 6.69638 95.9768 6.65956 95.9931 6.62866C96.0094 6.59692 96.0478 6.57562 96.0758 6.5496C96.1224 6.50736 96.1445 6.45183 96.1771 6.40273C96.2201 6.33889 96.3005 6.29252 96.339 6.22809C96.3704 6.17629 96.3773 6.11121 96.4111 6.06141C96.4402 6.01693 96.4856 5.99737 96.4763 5.93612C96.4739 5.91552 96.4669 5.89179 96.4855 5.8798C96.5077 5.86403 96.552 5.8807 96.573 5.90199C96.6547 5.98603 96.5837 6.08435 96.5418 6.15087C96.4789 6.24939 96.4265 6.34671 96.3438 6.43676C96.3042 6.4799 96.2635 6.52204 96.2215 6.56404C96.161 6.62563 96.0981 6.68947 96.0445 6.75534C96.0224 6.78211 96.0049 6.80609 95.9874 6.83092L96.0026 6.8244C96.0212 6.81664 96.0387 6.80958 96.0574 6.80181L96.1728 6.75569C96.5201 6.61579 96.8838 6.49151 97.0945 6.23602C97.126 6.26035 97.1342 6.29523 97.1249 6.32364C97.075 6.48216 96.8081 6.60953 96.6391 6.69023C96.6204 6.69968 96.6006 6.70899 96.582 6.71759C96.5342 6.73939 96.4852 6.75934 96.4363 6.78013C96.4037 6.79371 96.3722 6.80914 96.3396 6.82187L96.2288 6.86775C96.1787 6.88755 96.1274 6.9165 96.0715 6.92795C96.0318 6.93556 96.0062 6.93058 95.9677 6.94595C95.8768 6.98337 95.7929 7.03352 95.7137 7.08258C95.5529 7.18124 95.4061 7.29692 95.3129 7.43807C95.2512 7.52997 95.2094 7.63371 95.1686 7.73337L95.1652 7.73969L95.157 7.76148L95.1605 7.77631C95.1851 7.88094 95.2284 7.98374 95.2763 8.08883C95.288 8.11316 95.2985 8.13734 95.3102 8.16252C95.323 8.19123 95.3359 8.22078 95.3499 8.24964C95.3861 8.3304 95.4224 8.41284 95.4469 8.49549C95.4586 8.53335 95.4727 8.58674 95.4797 8.64685C95.4974 8.79965 95.4719 8.99683 95.2668 9.1025C95.2085 9.13141 95.1444 9.14773 95.0756 9.14992C95.0488 9.15071 95.022 9.14812 94.9952 9.14553C94.9427 9.13882 94.8914 9.12633 94.8447 9.1119C94.8366 9.11 94.8272 9.10712 94.8202 9.10453C94.8039 9.0999 94.7887 9.09542 94.7724 9.0908C94.6371 9.04895 94.4925 9.00929 94.3432 8.98087C94.3257 8.97779 94.3094 8.974 94.2919 8.97092C94.2068 8.95748 94.1216 8.94658 94.0377 8.94006C94.0248 8.93927 94.0132 8.93862 94.0015 8.93797C93.9444 8.93319 93.8896 8.93125 93.8359 8.932C93.8231 8.93289 93.808 8.9318 93.7951 8.93269C93.7263 8.93657 93.6797 8.95766 93.6448 8.99886C93.6157 9.03488 93.5912 9.0732 93.5668 9.11151L93.5423 9.14813C93.5155 9.18952 93.4876 9.23415 93.4608 9.28147C93.4387 9.32008 93.4166 9.35954 93.398 9.40113C93.3852 9.42909 93.3736 9.45636 93.3631 9.48462C93.355 9.50726 93.3492 9.53104 93.3422 9.55468C93.3259 9.61264 93.312 9.67175 93.2992 9.73016C93.2911 9.76887 93.283 9.80758 93.2737 9.84614C93.2319 10.0159 93.1482 10.2529 92.8883 10.366C92.9023 10.4228 92.9024 10.4837 92.8884 10.5512C92.8978 10.5609 92.9036 10.5709 92.9118 10.5813C92.9258 10.5974 92.941 10.6138 92.9515 10.6312C92.9597 10.6449 92.9643 10.6582 92.969 10.6715C92.9714 10.6769 92.9725 10.6812 92.9749 10.6866C92.9772 10.6988 92.9807 10.7119 92.9819 10.7222C92.9842 10.725 92.9854 10.7269 92.9866 10.7287C92.9901 10.7334 92.9936 10.7381 92.9959 10.7426C93.0041 10.7572 93.0099 10.7714 93.0146 10.7856C93.0158 10.7874 93.0158 10.7891 93.017 10.791C93.0216 10.8042 93.0251 10.8174 93.0287 10.8288C93.0298 10.8332 93.031 10.8376 93.0322 10.8411C93.0322 10.8428 93.0333 10.8455 93.0333 10.8472L93.0765 10.9026L93.1022 10.9355C93.1162 10.9415 93.1314 10.946 93.1454 10.9503C93.178 10.9613 93.213 10.9717 93.2503 10.9815C93.2573 10.9833 93.2632 10.9849 93.269 10.9865C93.2982 10.9944 93.3262 11.0014 93.353 11.0099C93.3891 11.0213 93.4218 11.0356 93.4533 11.0506C93.493 11.0701 93.5315 11.0928 93.5688 11.1204C93.5758 11.1255 93.5828 11.1298 93.5898 11.1349C93.619 11.1547 93.6458 11.1768 93.6657 11.1962C93.6692 11.1992 93.6727 11.2014 93.6762 11.2043C93.6832 11.2086 93.6902 11.2121 93.6972 11.2155C93.7018 11.2186 93.7065 11.2218 93.7123 11.2234C93.7193 11.2268 93.7275 11.2287 93.7345 11.2313C93.7392 11.2327 93.745 11.2343 93.7497 11.2357C93.7578 11.2376 93.7648 11.2377 93.773 11.2387C93.7788 11.2395 93.7835 11.2401 93.7881 11.2407C93.7963 11.2409 93.8056 11.2404 93.8138 11.2397C93.8196 11.2396 93.8243 11.2394 93.8301 11.2393C93.8383 11.2378 93.8476 11.2364 93.8569 11.2351C93.8628 11.2342 93.8674 11.2331 93.8732 11.2321C93.8826 11.2299 93.8919 11.2277 93.9012 11.2247C93.9082 11.2231 93.914 11.2221 93.921 11.2205C93.9292 11.2181 93.9385 11.2151 93.9467 11.2119C93.9548 11.2096 93.963 11.2072 93.9747 11.2037C93.991 11.1981 94.0085 11.1919 94.0259 11.1857C94.0831 11.1659 94.1425 11.1456 94.2055 11.1326C94.2055 11.1326 94.1845 11.1206 94.1833 11.1204L94.2218 11.127L94.2579 11.1173C94.2999 11.1057 94.3442 11.1072 94.3908 11.1216C94.413 11.1245 94.4363 11.1291 94.4597 11.1347C94.483 11.141 94.5051 11.1489 94.5261 11.1576C94.5401 11.1636 94.5506 11.1708 94.5623 11.1808C94.5705 11.1894 94.5775 11.1996 94.581 11.2094C94.5892 11.2096 94.5985 11.2074 94.609 11.2037C94.6148 11.201 94.6183 11.1981 94.623 11.1953C94.6264 11.1932 94.6311 11.1913 94.6346 11.19C94.6556 11.1767 94.6847 11.1584 94.7395 11.1561C94.7873 11.1546 94.8363 11.1634 94.8865 11.1758C94.9658 11.1944 95.0451 11.224 95.1162 11.2517C95.1571 11.2679 95.1979 11.285 95.2387 11.3021C95.2515 11.3079 95.2632 11.312 95.276 11.3178C95.3565 11.3518 95.4335 11.3845 95.5128 11.4116C95.5875 11.4372 95.6645 11.4538 95.7438 11.4699C95.7892 11.4783 95.8336 11.4873 95.8802 11.4958C96.0038 11.5176 96.131 11.5406 96.2558 11.5811C96.2837 11.5898 96.3129 11.5994 96.3409 11.6106C96.3712 11.6221 96.3992 11.635 96.4272 11.6488C96.622 11.7439 96.7714 11.8789 96.9161 12.0099L96.9383 12.0305C97.0854 12.1627 97.2523 12.3007 97.4401 12.3772C97.6104 12.4455 97.7771 12.428 97.952 12.4884C97.9579 12.49 97.9637 12.4925 97.9672 12.4971C97.9742 12.5056 97.9637 12.5136 97.9544 12.5183C97.8682 12.5623 97.7831 12.5937 97.6676 12.5577C97.5708 12.5276 97.4693 12.507 97.3737 12.4694C97.1812 12.3931 97.0319 12.275 96.886 12.1549L96.8288 12.1036C96.6117 11.9117 96.4063 11.7306 96.0903 11.6589C96.0191 11.643 95.9468 11.6304 95.8733 11.6176C95.8419 11.6119 95.808 11.6058 95.7754 11.6C95.7077 11.5879 95.6389 11.574 95.5701 11.5559C95.5491 11.5499 95.5305 11.5424 95.5106 11.5356C95.4092 11.504 95.3112 11.4653 95.2167 11.4253C95.1654 11.4043 95.114 11.3825 95.0615 11.3623C95.0417 11.3547 95.0195 11.3459 94.9962 11.337C94.9671 11.3265 94.9344 11.3164 94.9029 11.3073C94.8703 11.298 94.8376 11.2896 94.8073 11.2857C94.7886 11.2833 94.777 11.2869 94.7583 11.2964C94.7537 11.2992 94.7478 11.3018 94.742 11.3053C94.714 11.322 94.6779 11.3427 94.6196 11.3437C94.5415 11.3464 94.4762 11.3076 94.4248 11.2765C94.4131 11.2691 94.4026 11.2627 94.3921 11.2571C94.3618 11.2541 94.3327 11.258 94.3024 11.2642C94.2639 11.2728 94.2243 11.2864 94.1858 11.3026C94.1707 11.3091 94.1555 11.3148 94.1404 11.3213C94.1322 11.3253 94.1252 11.3278 94.117 11.331C94.0867 11.344 94.0576 11.3564 94.0285 11.3662C94.0052 11.3742 93.9818 11.3788 93.9574 11.3841C93.9154 11.3931 93.8746 11.4006 93.8338 11.4013C93.8419 11.4142 93.8501 11.4279 93.8583 11.4416C93.8712 11.4636 93.884 11.4855 93.898 11.5085C93.9027 11.5184 93.9085 11.5284 93.9144 11.5376C93.9774 11.6472 94.0452 11.7573 94.1595 11.8354C94.1875 11.8542 94.219 11.8701 94.2505 11.8834C94.3217 11.9137 94.3998 11.9347 94.4826 11.9554C94.5328 11.9678 94.5841 11.9811 94.6331 11.9958C94.8209 12.0537 94.9865 12.1375 95.0998 12.2636C95.1208 12.2866 95.1418 12.3088 95.1686 12.3283C95.2165 12.3623 95.2783 12.3838 95.3238 12.4192C95.3331 12.4263 95.3413 12.435 95.3425 12.4436C95.3437 12.4573 95.3262 12.4652 95.3087 12.4646C95.2912 12.4649 95.2737 12.4576 95.2574 12.4504C95.0077 12.3449 94.842 12.1706 94.5691 12.0951C94.5411 12.0872 94.5131 12.0803 94.4839 12.074C94.4746 12.0711 94.4641 12.0689 94.4548 12.066C94.3999 12.0531 94.344 12.0383 94.288 12.021C94.2495 12.0093 94.211 11.9968 94.1725 11.98C94.1643 11.9764 94.1573 11.9721 94.1503 11.9687C93.9718 11.8824 93.8668 11.7463 93.7815 11.6111C93.7663 11.588 93.7512 11.5632 93.736 11.5376C93.6986 11.4753 93.66 11.4112 93.6122 11.3535C93.6099 11.3523 93.6075 11.3503 93.604 11.349C93.5819 11.3377 93.5609 11.3249 93.5398 11.3095C93.5177 11.2932 93.4978 11.2754 93.4757 11.2548C93.4523 11.2332 93.429 11.2116 93.4033 11.1965C93.3975 11.1932 93.3916 11.1899 93.394 11.1911C93.3508 11.1745 93.3042 11.1618 93.254 11.1486C93.2167 11.1379 93.1794 11.1281 93.1432 11.1167C93.1409 11.1164 93.1385 11.1152 93.1374 11.1151C93.1327 11.1136 93.1292 11.1123 93.1245 11.11C93.0919 11.0991 93.0604 11.0874 93.0324 11.0729C92.9997 11.0602 92.9717 11.0465 92.9449 11.0321C92.9391 11.0288 92.9321 11.0253 92.9262 11.0221C92.9087 11.0114 92.8936 11.0001 92.8784 10.988C92.8574 10.9727 92.8387 10.955 92.8235 10.937C92.8212 10.9342 92.82 10.9315 92.8177 10.9287C92.8072 10.9155 92.7979 10.9024 92.7908 10.8889C92.7885 10.8843 92.7873 10.8791 92.785 10.8737C92.7792 10.8612 92.7733 10.8494 92.771 10.8364C92.7395 10.8814 92.7034 10.914 92.6638 10.9369C92.6708 10.9454 92.6755 10.9544 92.6813 10.9636C92.6977 10.9894 92.7117 11.0149 92.7187 11.0412C92.7199 11.043 92.7199 11.0447 92.7199 11.0472C92.748 11.1515 92.7119 11.2585 92.6794 11.3575C92.6689 11.3883 92.6585 11.4191 92.6503 11.4485C92.6341 11.509 92.6248 11.5662 92.6377 11.6194C92.6435 11.6464 92.6552 11.6716 92.6751 11.6961C92.6821 11.7063 92.6949 11.7172 92.7089 11.7275C92.7171 11.7345 92.7252 11.7406 92.7334 11.7476C92.7462 11.7577 92.7603 11.7679 92.7743 11.779C92.8104 11.8098 92.8443 11.8455 92.8525 11.893C92.8666 11.9693 92.8048 12.0197 92.7594 12.0562L92.7407 12.0724C92.644 12.1548 92.6884 12.2433 92.8005 12.3532C92.8378 12.3902 92.8834 12.4298 92.9335 12.4718C92.9825 12.5136 93.0292 12.5534 93.0666 12.5911C93.311 12.8362 93.3293 13.0562 93.3556 13.3318C93.3571 13.3484 93.3926 13.415 93.3619 13.4802C93.3419 13.547 93.1349 13.7485 93.0981 13.78C93.0294 13.8406 92.9478 13.891 92.8674 13.94C92.7928 13.9845 92.7159 14.0305 92.6588 14.0858C92.6017 14.1394 92.568 14.201 92.5622 14.262C92.5611 14.283 92.5634 14.3045 92.5681 14.3245C92.5705 14.335 92.5728 14.3446 92.5775 14.3545C92.5892 14.3822 92.6102 14.4111 92.644 14.4459C92.6534 14.4564 92.6639 14.4662 92.6744 14.476C92.6802 14.4818 92.686 14.4876 92.6919 14.4934C92.6989 14.5002 92.7059 14.5071 92.7129 14.5139C92.7246 14.5255 92.7374 14.5373 92.7491 14.549C92.7689 14.5701 92.7818 14.5921 92.7981 14.6136C92.8074 14.6258 92.8203 14.6393 92.8273 14.652C92.867 14.7171 92.8892 14.7893 92.8916 14.859C92.8928 14.8794 92.8882 14.8991 92.8859 14.9183C92.8813 14.9676 92.8696 15.0152 92.8464 15.0579C92.8138 15.118 92.7637 15.1699 92.7008 15.2092C92.6961 15.212 92.6914 15.2139 92.6868 15.2167C92.6052 15.2638 92.5014 15.2776 92.3895 15.237C92.3766 15.232 92.3615 15.2233 92.3638 15.2143C92.4606 15.1937 92.5503 15.1502 92.6167 15.0978C92.6913 15.0405 92.7367 14.9609 92.7401 14.8692C92.7412 14.8414 92.7388 14.8141 92.733 14.7846C92.726 14.7557 92.7166 14.7283 92.7026 14.702C92.6886 14.674 92.6699 14.6471 92.6489 14.6224C92.6407 14.6129 92.6314 14.6049 92.622 14.5953C92.608 14.5808 92.5928 14.5653 92.5777 14.5507L92.5602 14.5341L92.5497 14.5234C92.517 14.4913 92.4796 14.4519 92.4528 14.4078C92.4282 14.3675 92.4154 14.3252 92.4118 14.2825C92.4048 14.2046 92.4327 14.1253 92.4909 14.0533C92.5619 13.9651 92.6668 13.9024 92.7682 13.8418C92.8241 13.8092 92.8766 13.7779 92.9232 13.7424C92.9954 13.6882 93.0571 13.6259 93.1072 13.5571C93.1468 13.503 93.1817 13.4457 93.2085 13.3857C93.2085 13.3848 93.2085 13.3831 93.2096 13.3816C93.1919 13.1772 93.159 12.9413 92.9909 12.7354C92.9629 12.7005 92.9279 12.6672 92.8894 12.6344C92.8602 12.6087 92.8287 12.5835 92.796 12.5573C92.7459 12.5171 92.6957 12.4768 92.649 12.4328C92.6035 12.3889 92.5614 12.3412 92.5311 12.2883C92.496 12.2271 92.461 12.1347 92.5017 12.0503C92.511 12.0286 92.5308 12.01 92.5506 11.9906C92.5611 11.9826 92.5692 11.9735 92.5797 11.9655C92.6123 11.9376 92.6589 11.8996 92.6438 11.8798C92.6368 11.8688 92.6169 11.8553 92.5971 11.8417C92.5772 11.8282 92.5574 11.8138 92.5387 11.7962C92.5271 11.7863 92.5201 11.7744 92.5107 11.7639C92.4932 11.7422 92.478 11.7199 92.4663 11.6964C92.4593 11.6846 92.4523 11.6727 92.4477 11.6602C92.4231 11.5911 92.4254 11.5237 92.4358 11.4642C92.4358 11.4616 92.4358 11.46 92.437 11.4576C92.4393 11.4401 92.4427 11.4236 92.4474 11.4082C92.4544 11.382 92.4637 11.3536 92.473 11.3226C92.4776 11.3088 92.4823 11.2951 92.4869 11.2804C92.4881 11.2789 92.4881 11.278 92.4881 11.2764C92.4892 11.274 92.4904 11.2716 92.4904 11.269C92.5229 11.165 92.5427 11.0567 92.4645 10.979C92.4621 10.9762 92.461 10.9743 92.4586 10.9723C92.4388 10.9707 92.4178 10.968 92.3968 10.9653C92.3665 10.9614 92.335 10.9565 92.3035 10.9508C92.2254 10.9383 92.1367 10.9235 92.0376 10.921C92.0271 10.9213 92.0178 10.9218 92.0073 10.9222C91.991 10.9226 91.9747 10.9222 91.9584 10.9244C91.9514 10.9285 91.9432 10.9317 91.9362 10.9359C91.9176 10.9462 91.8978 10.9564 91.8768 10.9655C91.8674 10.9685 91.857 10.9714 91.8476 10.9753C91.8267 10.9836 91.8045 10.9918 91.78 10.9988C91.7672 11.0022 91.7532 11.0047 91.7392 11.0079C91.7159 11.0143 91.6938 11.0199 91.6693 11.0244C91.6518 11.0272 91.6331 11.0299 91.6157 11.0327C91.5923 11.0365 91.5702 11.0404 91.5457 11.0432C91.5457 11.0432 91.5375 11.0456 91.5387 11.0466L91.4909 11.0607L91.4816 11.0638L91.4676 11.051C91.4175 11.0556 91.3662 11.0591 91.3114 11.0614C91.2624 11.0645 91.2122 11.0656 91.1621 11.0677C91.042 11.0726 90.9278 11.0766 90.8263 11.089C90.7272 11.1008 90.634 11.1252 90.5454 11.1562C90.4277 11.1969 90.3216 11.2544 90.2296 11.3263C90.2109 11.3417 90.19 11.3543 90.1725 11.3706C90.1212 11.4173 90.0735 11.4654 90.0269 11.5144C89.9453 11.597 89.8615 11.6809 89.7613 11.7561C89.7426 11.7697 89.724 11.7834 89.7042 11.797C89.6902 11.8062 89.6739 11.8142 89.6587 11.8233C89.4595 11.9432 89.231 12.0341 89.0072 12.1213C88.9408 12.1466 88.872 12.1733 88.8056 12.2004C88.738 12.2272 88.6716 12.2559 88.6075 12.2849C88.6028 12.2877 88.5981 12.2897 88.5935 12.2924C88.3883 12.3888 88.245 12.4838 88.1449 12.5928C88.0657 12.6782 88.0156 12.7758 87.9621 12.8789C87.9365 12.9272 87.9097 12.9771 87.8794 13.0256C87.862 13.0547 87.8445 13.0837 87.8247 13.1125C87.5418 13.4958 87.0873 13.7691 86.6468 14.0324C86.6142 14.0511 86.5664 14.0458 86.5326 14.022C86.5291 14.0199 86.5256 14.0186 86.5232 14.0166C86.5197 14.0136 86.5185 14.0101 86.5162 14.0072Z" fill="white"/>
</g>
</g>
</g>
</g>
</g>
<path d="M0.51 23V22.87C0.81 22.78 0.91 22.55 0.91 21.73V17.27C0.91 16.45 0.81 16.22 0.51 16.13V16H2.9C5.65 16 6.73 17.75 6.74 19.37C6.75 21.48 5.33 23 3.13 23H0.51ZM1.73 22.12C1.73 22.59 1.83 22.85 2.38 22.85H3.11C4.86 22.85 5.83 21.86 5.83 19.77C5.83 17.77 4.64 16.15 2.41 16.15H1.73V22.12ZM12.8461 23.07C12.0761 23.07 11.9161 22.51 11.4761 21.47C10.8961 20.09 10.8161 19.39 9.61609 19.39H8.97609V21.73C8.97609 22.55 9.06609 22.78 9.37609 22.87V23H7.75609V22.87C8.06609 22.78 8.15609 22.55 8.15609 21.73V17.27C8.15609 16.45 8.06609 16.22 7.75609 16.13V16H9.72609C11.7561 16 12.3561 16.67 12.3561 17.56C12.3561 18.5 11.6761 19.21 10.3761 19.36C11.6061 19.52 11.7961 20.13 12.2761 21.36C12.7561 22.56 12.9561 22.89 13.2961 22.89C13.3561 22.89 13.4061 22.89 13.4561 22.88V23C13.3061 23.05 13.0461 23.07 12.8461 23.07ZM8.97609 19.24H9.81609C10.9661 19.24 11.5061 18.64 11.5061 17.79C11.5061 16.9 10.9261 16.15 9.44609 16.15C9.29609 16.15 9.13609 16.16 8.97609 16.17V19.24ZM13.1991 23V22.87C13.4791 22.78 13.7291 22.58 14.0391 21.82L16.0091 16.94C16.0791 16.76 16.0691 16.63 15.9891 16.47L15.8991 16.26L16.6491 15.92L19.1091 21.83C19.4191 22.58 19.6591 22.78 19.8691 22.87V23H18.3191V22.87C18.6291 22.78 18.5491 22.58 18.2291 21.83L17.6191 20.36H14.7991L14.2091 21.82C13.9491 22.47 13.9891 22.8 14.3291 22.87V23H13.1991ZM14.8591 20.21H17.5591L16.1891 16.92L14.8591 20.21ZM20.8954 23.07C20.6154 23.07 20.3754 22.82 20.3754 22.53C20.3754 22.24 20.6154 22 20.8954 22C21.1754 22 21.4054 22.24 21.4054 22.53C21.4054 22.82 21.1754 23.07 20.8954 23.07ZM23.9316 23V22.87C24.2116 22.78 24.4616 22.58 24.7716 21.82L26.7416 16.94C26.8116 16.76 26.8016 16.63 26.7216 16.47L26.6316 16.26L27.3816 15.92L29.8416 21.83C30.1516 22.58 30.3916 22.78 30.6016 22.87V23H29.0516V22.87C29.3616 22.78 29.2816 22.58 28.9616 21.83L28.3516 20.36H25.5316L24.9416 21.82C24.6816 22.47 24.7216 22.8 25.0616 22.87V23H23.9316ZM25.5916 20.21H28.2916L26.9216 16.92L25.5916 20.21ZM36.2978 23.08L31.5878 16.95V21.33C31.5878 22.47 31.8278 22.75 32.2778 22.87V23H31.0278V22.87C31.3278 22.78 31.4278 22.55 31.4278 21.73V17.27C31.4278 16.45 31.3078 16.22 30.9078 16.13V16H31.8878L36.2578 21.66V17.67C36.2578 16.53 36.0178 16.25 35.5678 16.13V16H36.8278V16.13C36.5178 16.22 36.4278 16.45 36.4278 17.27V23.08H36.2978ZM41.4266 23.1C39.1966 23.1 37.7466 21.7 37.7466 19.55C37.7466 17.54 39.2466 15.93 41.3866 15.93C42.2766 15.93 43.2266 16.19 43.6166 16.45L43.6566 17.63L43.5566 17.65C43.1866 16.79 42.2666 16.11 41.0966 16.11C39.6566 16.11 38.5766 17.1 38.5566 18.94C38.5366 20.83 39.7166 22.9 41.7366 22.9C42.4866 22.9 43.1366 22.5 43.3866 22L43.3766 20.98C43.3766 20.36 43.2966 20.12 42.8666 20.01V19.89H44.1766V21.77C43.5966 22.58 42.4366 23.1 41.4266 23.1ZM45.1584 23V22.87C45.4584 22.78 45.5584 22.55 45.5584 21.73V17.27C45.5584 16.45 45.4584 16.22 45.1584 16.13V16H49.8084L49.9184 17.3L49.8084 17.33C49.4584 16.45 48.8684 16.15 47.8484 16.15H46.3784V19.18H47.6584C48.7984 19.18 49.0884 18.95 49.2084 18.5H49.3284V20.01H49.2084C49.0884 19.56 48.7984 19.33 47.6584 19.33H46.3784V22.4C46.3784 22.69 46.5384 22.85 46.8284 22.85H48.1284C49.0884 22.85 49.6984 22.58 50.0584 21.65L50.1684 21.67L50.0884 23H45.1584ZM51.0471 23V22.87C51.3471 22.78 51.4471 22.55 51.4471 21.73V17.27C51.4471 16.45 51.3471 16.22 51.0471 16.13V16H52.6671V16.13C52.3571 16.22 52.2671 16.45 52.2671 17.27V22.39C52.2671 22.68 52.4271 22.84 52.7171 22.84H53.9071C54.8671 22.84 55.3071 22.6 55.6571 21.85L55.7671 21.87L55.6971 23H51.0471ZM55.7968 23V22.87C56.0768 22.78 56.3268 22.58 56.6368 21.82L58.6068 16.94C58.6768 16.76 58.6668 16.63 58.5868 16.47L58.4968 16.26L59.2468 15.92L61.7068 21.83C62.0168 22.58 62.2568 22.78 62.4668 22.87V23H60.9168V22.87C61.2268 22.78 61.1468 22.58 60.8268 21.83L60.2168 20.36H57.3968L56.8068 21.82C56.5468 22.47 56.5868 22.8 56.9268 22.87V23H55.7968ZM57.4568 20.21H60.1568L58.7868 16.92L57.4568 20.21ZM70.0727 23.07C69.3027 23.07 69.1427 22.51 68.7027 21.47C68.1227 20.09 68.0427 19.39 66.8427 19.39H66.2027V21.73C66.2027 22.55 66.2927 22.78 66.6027 22.87V23H64.9827V22.87C65.2927 22.78 65.3827 22.55 65.3827 21.73V17.27C65.3827 16.45 65.2927 16.22 64.9827 16.13V16H66.9527C68.9827 16 69.5827 16.67 69.5827 17.56C69.5827 18.5 68.9027 19.21 67.6027 19.36C68.8327 19.52 69.0227 20.13 69.5027 21.36C69.9827 22.56 70.1827 22.89 70.5227 22.89C70.5827 22.89 70.6327 22.89 70.6827 22.88V23C70.5327 23.05 70.2727 23.07 70.0727 23.07ZM66.2027 19.24H67.0427C68.1927 19.24 68.7327 18.64 68.7327 17.79C68.7327 16.9 68.1527 16.15 66.6727 16.15C66.5227 16.15 66.3627 16.16 66.2027 16.17V19.24ZM74.1777 23.1C72.4777 23.1 70.6177 21.97 70.6177 19.49C70.6177 17.44 72.0577 15.92 74.1777 15.92C75.8677 15.92 77.7177 17.08 77.7177 19.53C77.7177 22 75.8577 23.1 74.1777 23.1ZM71.4177 18.91C71.4877 20.92 72.8077 22.85 74.5977 22.85C76.1977 22.85 76.9877 21.69 76.9377 20.19C76.8677 18.1 75.5577 16.15 73.7677 16.15C72.2477 16.15 71.3577 17.28 71.4177 18.91ZM78.7424 23V22.87C79.0424 22.78 79.1424 22.55 79.1424 21.73V17.27C79.1424 16.45 79.0424 16.22 78.7424 16.13V16H81.1324C83.8824 16 84.9624 17.75 84.9724 19.37C84.9824 21.48 83.5624 23 81.3624 23H78.7424ZM79.9624 22.12C79.9624 22.59 80.0624 22.85 80.6124 22.85H81.3424C83.0924 22.85 84.0624 21.86 84.0624 19.77C84.0624 17.77 82.8724 16.15 80.6424 16.15H79.9624V22.12ZM91.0785 23.07C90.3085 23.07 90.1485 22.51 89.7085 21.47C89.1285 20.09 89.0485 19.39 87.8485 19.39H87.2085V21.73C87.2085 22.55 87.2985 22.78 87.6085 22.87V23H85.9885V22.87C86.2985 22.78 86.3885 22.55 86.3885 21.73V17.27C86.3885 16.45 86.2985 16.22 85.9885 16.13V16H87.9585C89.9885 16 90.5885 16.67 90.5885 17.56C90.5885 18.5 89.9085 19.21 88.6085 19.36C89.8385 19.52 90.0285 20.13 90.5085 21.36C90.9885 22.56 91.1885 22.89 91.5285 22.89C91.5885 22.89 91.6385 22.89 91.6885 22.88V23C91.5385 23.05 91.2785 23.07 91.0785 23.07ZM87.2085 19.24H88.0485C89.1985 19.24 89.7385 18.64 89.7385 17.79C89.7385 16.9 89.1585 16.15 87.6785 16.15C87.5285 16.15 87.3685 16.16 87.2085 16.17V19.24ZM92.1116 23V22.87C92.4116 22.78 92.5116 22.55 92.5116 21.73V17.27C92.5116 16.45 92.4116 16.22 92.1116 16.13V16H93.7316V16.13C93.4216 16.22 93.3316 16.45 93.3316 17.27V21.73C93.3316 22.55 93.4216 22.78 93.7316 22.87V23H92.1116ZM98.4383 23.1C96.2083 23.1 94.7583 21.7 94.7583 19.55C94.7583 17.54 96.2583 15.93 98.3983 15.93C99.2883 15.93 100.238 16.19 100.628 16.45L100.668 17.63L100.568 17.65C100.198 16.79 99.2783 16.11 98.1083 16.11C96.6683 16.11 95.5883 17.1 95.5683 18.94C95.5483 20.83 96.7283 22.9 98.7483 22.9C99.4983 22.9 100.148 22.5 100.398 22L100.388 20.98C100.388 20.36 100.308 20.12 99.8783 20.01V19.89H101.188V21.77C100.608 22.58 99.4483 23.1 98.4383 23.1ZM105.27 23.1C103.84 23.1 102.44 22.43 102.44 20.42V17.27C102.44 16.45 102.35 16.22 102.04 16.13V16H103.66V16.13C103.36 16.22 103.26 16.45 103.26 17.27V20.36C103.26 22.22 104.29 22.89 105.59 22.89C106.45 22.89 107.6 22.32 107.6 20.36V17.67C107.6 16.53 107.36 16.25 106.92 16.13V16H108.16V16.13C107.86 16.22 107.76 16.45 107.76 17.27V20.33C107.76 22.34 106.66 23.1 105.27 23.1ZM108.957 23V22.87C109.257 22.78 109.357 22.55 109.357 21.73V17.27C109.357 16.45 109.257 16.22 108.957 16.13V16H113.607L113.717 17.3L113.607 17.33C113.257 16.45 112.667 16.15 111.647 16.15H110.177V19.18H111.457C112.597 19.18 112.887 18.95 113.007 18.5H113.127V20.01H113.007C112.887 19.56 112.597 19.33 111.457 19.33H110.177V22.4C110.177 22.69 110.337 22.85 110.627 22.85H111.927C112.887 22.85 113.497 22.58 113.857 21.65L113.967 21.67L113.887 23H108.957ZM117.186 23.1C116.136 23.1 115.256 22.73 114.786 22.39L114.736 21L114.846 20.98C115.236 22.03 115.996 22.92 117.386 22.92C118.186 22.92 118.876 22.4 118.876 21.59C118.876 20.59 117.646 20.13 116.806 19.79C115.626 19.32 114.876 18.9 114.876 17.84C114.876 16.67 115.846 15.93 117.316 15.93C118.226 15.93 118.876 16.18 119.266 16.39L119.306 17.55L119.206 17.58C118.836 16.71 118.136 16.09 116.996 16.09C116.186 16.09 115.496 16.56 115.496 17.41C115.496 18.35 116.526 18.73 117.376 19.08C118.486 19.52 119.526 19.96 119.526 21.09C119.526 22.34 118.366 23.1 117.186 23.1Z" fill="white"/>
<path d="M85.188 30V29.944C85.32 29.9 85.348 29.78 85.348 29.492V27.708C85.348 27.42 85.32 27.3 85.188 27.256V27.2H86.028C86.94 27.2 87.148 27.652 87.148 27.976C87.148 28.476 86.788 28.9 85.968 28.9H85.772V29.492C85.772 29.78 85.8 29.9 85.932 29.944V30H85.188ZM85.772 28.836H85.948C86.472 28.836 86.696 28.532 86.696 28.08C86.696 27.736 86.528 27.264 85.896 27.264C85.856 27.264 85.8 27.268 85.772 27.272V28.836ZM89.3784 30.04C88.9664 30.04 88.5944 29.908 88.3904 29.756L88.3744 29.156L88.4264 29.148C88.5944 29.604 88.9504 29.956 89.4824 29.956C89.7584 29.956 90.0144 29.78 90.0144 29.452C90.0144 29.06 89.4984 28.876 89.1784 28.748C88.7664 28.576 88.4224 28.44 88.4224 27.976C88.4224 27.48 88.8224 27.172 89.4504 27.172C89.7464 27.172 90.0104 27.236 90.2184 27.34L90.2344 27.86L90.1904 27.876C90.0264 27.464 89.6864 27.24 89.2984 27.24C88.9784 27.24 88.7264 27.428 88.7264 27.744C88.7264 28.1 89.1304 28.244 89.4504 28.372C89.8584 28.528 90.3424 28.708 90.3424 29.188C90.3424 29.736 89.8384 30.04 89.3784 30.04ZM91.6333 30V29.944C91.7653 29.9 91.7933 29.78 91.7933 29.492V27.708C91.7933 27.42 91.7653 27.3 91.6333 27.256V27.2H92.3773V27.256C92.2453 27.3 92.2173 27.42 92.2173 27.708V29.492C92.2173 29.78 92.2453 29.9 92.3773 29.944V30H91.6333ZM96.3424 30.756C95.9864 30.756 95.6704 30.348 95.4464 30.024C95.3664 30.036 95.2904 30.04 95.2144 30.04C94.5344 30.04 93.7824 29.592 93.7824 28.588C93.7824 27.796 94.3664 27.168 95.2144 27.168C95.8904 27.168 96.6424 27.632 96.6424 28.612C96.6424 29.436 96.1024 29.888 95.5264 30.008C95.8584 30.264 96.1504 30.432 96.4824 30.432C96.6784 30.432 96.8184 30.372 96.9104 30.276L96.9464 30.308C96.7464 30.552 96.5904 30.756 96.3424 30.756ZM94.1984 28.344C94.2544 29.144 94.7624 29.916 95.4424 29.916C96.0544 29.916 96.2744 29.456 96.2384 28.928C96.1784 28.076 95.6984 27.272 95.0064 27.272C94.4624 27.272 94.1544 27.696 94.1984 28.344ZM99.3237 30.04C98.7477 30.04 98.1557 29.772 98.1557 28.912V27.708C98.1557 27.42 98.1277 27.3 97.9957 27.256V27.2H98.7397V27.256C98.6077 27.3 98.5797 27.42 98.5797 27.708V28.944C98.5797 29.672 98.9397 29.944 99.4837 29.944C99.8197 29.944 100.256 29.696 100.256 28.92V27.948C100.256 27.46 100.16 27.32 99.9517 27.256V27.2H100.488V27.256C100.356 27.3 100.328 27.42 100.328 27.708V28.912C100.328 29.716 99.9077 30.04 99.3237 30.04ZM101.782 30V29.944C101.914 29.9 101.942 29.78 101.942 29.492V27.708C101.942 27.42 101.914 27.3 101.782 27.256V27.2H102.526V27.256C102.394 27.3 102.366 27.42 102.366 27.708V29.492C102.366 29.78 102.394 29.9 102.526 29.944V30H101.782ZM103.631 30V29.944C103.751 29.9 103.859 29.796 103.967 29.528L104.715 27.672C104.747 27.592 104.743 27.528 104.707 27.456L104.655 27.344L105.047 27.168L106.039 29.532C106.151 29.796 106.255 29.9 106.347 29.944V30H105.619V29.944C105.751 29.9 105.695 29.796 105.583 29.532L105.343 28.956H104.275L104.043 29.528C103.935 29.796 103.959 29.912 104.095 29.944V30H103.631ZM104.299 28.892H105.315L104.799 27.656L104.299 28.892ZM107.717 30V29.944C107.849 29.9 107.877 29.78 107.877 29.492V27.272H107.753C107.397 27.272 107.217 27.372 107.069 27.692L107.021 27.684L107.045 27.2H109.129L109.153 27.684L109.105 27.692C108.957 27.372 108.777 27.272 108.421 27.272H108.305V29.492C108.305 29.78 108.333 29.9 108.465 29.944V30H107.717ZM112.427 30.028C112.095 30.028 112.015 29.812 111.823 29.344C111.583 28.76 111.563 28.564 111.211 28.564H110.975V29.492C110.975 29.78 111.003 29.9 111.135 29.944V30H110.391V29.944C110.523 29.9 110.551 29.78 110.551 29.492V27.708C110.551 27.42 110.523 27.3 110.391 27.256V27.2H111.231C112.103 27.2 112.283 27.516 112.283 27.84C112.283 28.208 112.031 28.484 111.499 28.548C111.951 28.6 112.039 28.788 112.251 29.32C112.463 29.852 112.507 29.948 112.655 29.948C112.675 29.948 112.695 29.948 112.715 29.944V30C112.623 30.024 112.495 30.028 112.427 30.028ZM110.975 28.5H111.231C111.687 28.5 111.859 28.244 111.859 27.936C111.859 27.612 111.651 27.264 111.151 27.264C111.095 27.264 111.035 27.268 110.975 27.276V28.5ZM113.864 30V29.944C113.996 29.9 114.024 29.78 114.024 29.492V27.708C114.024 27.42 113.996 27.3 113.864 27.256V27.2H114.608V27.256C114.476 27.3 114.448 27.42 114.448 27.708V29.492C114.448 29.78 114.476 29.9 114.608 29.944V30H113.864ZM115.713 30V29.944C115.833 29.9 115.941 29.796 116.049 29.528L116.797 27.672C116.829 27.592 116.825 27.528 116.789 27.456L116.737 27.344L117.129 27.168L118.121 29.532C118.233 29.796 118.337 29.9 118.429 29.944V30H117.701V29.944C117.833 29.9 117.777 29.796 117.665 29.532L117.425 28.956H116.357L116.125 29.528C116.017 29.796 116.041 29.912 116.177 29.944V30H115.713ZM116.381 28.892H117.397L116.881 27.656L116.381 28.892Z" fill="white"/>
</svg>
